<svg xmlns="http://www.w3.org/2000/svg" xmlns:xlink="http://www.w3.org/1999/xlink" width="1080" zoomAndPan="magnify" viewBox="0 0 810 809.999993" height="1080" preserveAspectRatio="xMidYMid meet" version="1.0"><defs><clipPath id="3b4f58213b"><path d="M 27.171875 27.171875 L 783.171875 27.171875 L 783.171875 783.171875 L 27.171875 783.171875 Z M 27.171875 27.171875 " clip-rule="nonzero"/></clipPath><clipPath id="afb6e89d43"><path d="M 123 468 L 688 468 L 688 783.171875 L 123 783.171875 Z M 123 468 " clip-rule="nonzero"/></clipPath></defs><g clip-path="url(#3b4f58213b)"><path fill="#b3b3b3" d="M 783.207031 405.1875 C 783.207031 501.898438 746.917969 590.097656 687.15625 656.945312 C 617.949219 734.4375 517.277344 783.199219 405.195312 783.199219 C 293.113281 783.199219 192.40625 734.4375 123.230469 656.945312 C 63.472656 590.097656 27.183594 501.898438 27.183594 405.1875 C 27.183594 196.429688 196.40625 27.179688 405.195312 27.179688 C 613.949219 27.179688 783.207031 196.429688 783.207031 405.1875 " fill-opacity="1" fill-rule="nonzero"/></g><path fill="#f2f2f2" d="M 405.195312 474.820312 C 473.703125 474.820312 536.109375 397.308594 536.109375 312.195312 C 536.109375 231.777344 520.554688 152.257812 405.195312 152.257812 C 289.820312 152.257812 274.261719 231.777344 274.261719 312.195312 C 274.261719 397.308594 336.671875 474.820312 405.195312 474.820312 " fill-opacity="1" fill-rule="nonzero"/><g clip-path="url(#afb6e89d43)"><path fill="#f2f2f2" d="M 687.15625 656.945312 C 617.949219 734.4375 517.277344 783.199219 405.195312 783.199219 C 293.113281 783.199219 192.40625 734.4375 123.230469 656.945312 C 122.035156 610.257812 153.125 502.085938 311.699219 468.789062 C 338.824219 496.476562 372.210938 512.132812 405.195312 512.132812 C 438.175781 512.132812 471.535156 496.476562 498.65625 468.789062 C 657.265625 502.085938 688.324219 610.257812 687.15625 656.945312 " fill-opacity="1" fill-rule="nonzero"/></g></svg>