<svg width="324" height="316" viewBox="0 0 324 316" fill="none" xmlns="http://www.w3.org/2000/svg">
<path d="M49.6822 130.59C56.9851 98.3013 89.8582 74.1526 114.009 74.0641C141.225 73.963 164.417 94.2881 182.697 96.083C198.819 97.6693 218.784 74.5507 247.497 80.3841C270.825 85.1241 283.785 119.138 279.897 140.715C272.685 180.758 253.977 204.673 227.85 209.293C216.406 211.322 211.002 207.789 205.377 208.819C180.345 213.389 163.413 243.996 109.473 246.739C68.0011 248.806 33.845 200.603 49.6822 130.59Z" fill="#1BAC4B"/>
<path opacity="0.9" d="M49.6822 130.59C56.9851 98.3013 89.8582 74.1526 114.009 74.0641C141.225 73.963 164.417 94.2881 182.697 96.083C198.819 97.6693 218.784 74.5507 247.497 80.3841C270.825 85.1241 283.785 119.138 279.897 140.715C272.685 180.758 253.977 204.673 227.85 209.293C216.406 211.322 211.002 207.789 205.377 208.819C180.345 213.389 163.413 243.996 109.473 246.739C68.0011 248.806 33.845 200.603 49.6822 130.59Z" fill="white"/>
<path d="M162 269.87C231.389 269.87 287.641 266.667 287.641 262.716C287.641 258.765 231.389 255.562 162 255.562C92.6105 255.562 36.3593 258.765 36.3593 262.716C36.3593 266.667 92.6105 269.87 162 269.87Z" fill="#F5F5F5"/>
<path d="M235.516 92.1646H214.417L199.513 258.539H220.612C223.573 258.483 226.411 257.372 228.591 255.416C230.77 253.461 232.141 250.794 232.444 247.921L245.462 102.776C245.614 101.424 245.468 100.055 245.034 98.7622C244.601 97.4692 243.89 96.2811 242.949 95.2771C242.007 94.273 240.858 93.4761 239.576 92.9394C238.294 92.4028 236.91 92.1386 235.516 92.1646Z" fill="#1BAC4B"/>
<path d="M231.213 92.1647H159.803C156.842 92.2188 154.003 93.3278 151.822 95.2825C149.641 97.2372 148.269 99.9025 147.964 102.776L134.946 247.921C134.796 249.272 134.942 250.64 135.376 251.931C135.809 253.223 136.518 254.411 137.458 255.415C138.397 256.419 139.545 257.217 140.824 257.755C142.104 258.294 143.486 258.561 144.88 258.539H216.283C219.24 258.477 222.073 257.364 224.248 255.409C226.424 253.454 227.792 250.791 228.096 247.921L241.114 102.776C241.265 101.427 241.12 100.063 240.689 98.7731C240.259 97.4832 239.552 96.2973 238.616 95.294C237.679 94.2907 236.535 93.4929 235.259 92.9534C233.983 92.4139 232.604 92.1451 231.213 92.1647Z" fill="#1BAC4B"/>
<path opacity="0.3" d="M231.213 92.1647H159.803C156.842 92.2188 154.003 93.3278 151.822 95.2825C149.641 97.2372 148.269 99.9025 147.964 102.776L134.946 247.921C134.796 249.272 134.942 250.64 135.376 251.931C135.809 253.223 136.518 254.411 137.458 255.415C138.397 256.419 139.545 257.217 140.824 257.755C142.104 258.294 143.486 258.561 144.88 258.539H216.283C219.24 258.477 222.073 257.364 224.248 255.409C226.424 253.454 227.792 250.791 228.096 247.921L241.114 102.776C241.265 101.427 241.12 100.063 240.689 98.7731C240.259 97.4832 239.552 96.2973 238.616 95.294C237.679 94.2907 236.535 93.4929 235.259 92.9534C233.983 92.4139 232.604 92.1451 231.213 92.1647Z" fill="white"/>
<path opacity="0.4" d="M230.908 95.5648H212.077C211.516 95.5692 210.969 95.7379 210.507 96.0488C210.045 96.3598 209.689 96.7988 209.485 97.3091C208.743 99.1835 207.444 100.8 205.756 101.951C204.067 103.103 202.065 103.737 200.005 103.774H188.898C186.958 103.813 185.065 103.19 183.545 102.013C182.025 100.836 180.974 99.1796 180.572 97.328C180.464 96.8271 180.181 96.3785 179.77 96.0599C179.36 95.7414 178.848 95.5729 178.323 95.5837H159.499C157.486 95.6184 155.556 96.3714 154.074 97.7003C152.592 99.0291 151.661 100.842 151.457 102.795L138.432 247.94C138.328 248.859 138.426 249.789 138.719 250.668C139.013 251.548 139.495 252.356 140.134 253.039C140.773 253.722 141.554 254.264 142.425 254.629C143.296 254.995 144.237 255.175 145.184 255.157H216.594C218.607 255.121 220.537 254.367 222.019 253.037C223.501 251.707 224.432 249.894 224.636 247.94L237.654 102.795C237.76 101.875 237.664 100.944 237.372 100.064C237.08 99.1838 236.598 98.3745 235.96 97.6901C235.321 97.0058 234.54 96.4622 233.669 96.0957C232.798 95.7292 231.857 95.5482 230.908 95.5648Z" fill="white"/>
<path d="M213.114 174.432H163.14C162.797 174.438 162.456 174.372 162.141 174.239C161.825 174.106 161.542 173.91 161.311 173.662C161.079 173.415 160.904 173.122 160.797 172.804C160.69 172.486 160.654 172.149 160.691 171.816L160.944 169.022C161.018 168.314 161.356 167.657 161.893 167.174C162.43 166.692 163.13 166.419 163.86 166.406H213.84C214.183 166.4 214.524 166.466 214.84 166.599C215.155 166.731 215.438 166.928 215.67 167.175C215.901 167.423 216.076 167.715 216.183 168.034C216.29 168.352 216.326 168.689 216.289 169.022L216.043 171.816C215.967 172.525 215.627 173.184 215.088 173.666C214.548 174.148 213.846 174.42 213.114 174.432Z" fill="white"/>
<path d="M212.039 186.44H162.058C161.715 186.446 161.375 186.38 161.059 186.247C160.744 186.114 160.462 185.918 160.231 185.67C159.999 185.423 159.825 185.13 159.719 184.812C159.613 184.493 159.578 184.156 159.615 183.824L159.862 181.03C159.937 180.322 160.275 179.666 160.812 179.184C161.349 178.702 162.048 178.428 162.778 178.414H212.758C213.101 178.408 213.442 178.474 213.757 178.607C214.073 178.739 214.356 178.936 214.587 179.183C214.819 179.431 214.994 179.723 215.101 180.042C215.208 180.36 215.244 180.697 215.207 181.03L214.955 183.824C214.879 184.531 214.541 185.188 214.004 185.67C213.467 186.151 212.768 186.425 212.039 186.44Z" fill="white"/>
<path opacity="0.1" d="M197.932 98.2824C197.849 99.0689 197.474 99.7986 196.877 100.333C196.28 100.868 195.502 101.17 194.692 101.183C194.311 101.19 193.933 101.117 193.583 100.971C193.233 100.824 192.919 100.606 192.662 100.331C192.405 100.057 192.211 99.7321 192.093 99.3789C191.975 99.0256 191.935 98.6518 191.976 98.2824C192.059 97.4959 192.434 96.7662 193.031 96.2315C193.628 95.6969 194.406 95.3945 195.216 95.3815C195.597 95.3748 195.975 95.4474 196.325 95.5943C196.675 95.7412 196.989 95.9591 197.246 96.2336C197.503 96.508 197.697 96.8327 197.815 97.186C197.933 97.5392 197.973 97.913 197.932 98.2824Z" fill="black"/>
<path opacity="0.1" d="M196.584 98.2824C196.538 98.7117 196.333 99.11 196.007 99.4021C195.681 99.6943 195.257 99.8602 194.815 99.8687C194.606 99.8727 194.4 99.8332 194.208 99.7529C194.017 99.6727 193.845 99.5535 193.704 99.4033C193.564 99.2532 193.458 99.0755 193.394 98.8822C193.329 98.6889 193.308 98.4844 193.331 98.2824C193.375 97.8525 193.58 97.4535 193.906 97.1611C194.232 96.8687 194.657 96.7032 195.1 96.6961C195.308 96.6931 195.514 96.7333 195.705 96.8139C195.896 96.8945 196.067 97.0137 196.208 97.1636C196.348 97.3136 196.454 97.4908 196.519 97.6837C196.584 97.8765 196.606 98.0806 196.584 98.2824Z" fill="black"/>
<g opacity="0.8">
<path d="M222.115 103.124C222.003 103.125 221.892 103.103 221.79 103.06C221.687 103.017 221.595 102.952 221.52 102.872C221.444 102.791 221.387 102.696 221.353 102.592C221.318 102.488 221.306 102.379 221.318 102.27L221.46 100.716C221.484 100.486 221.594 100.273 221.768 100.117C221.943 99.9604 222.17 99.8722 222.407 99.8687C222.518 99.8673 222.628 99.8888 222.73 99.9318C222.832 99.9748 222.924 100.038 222.999 100.118C223.075 100.198 223.132 100.293 223.167 100.396C223.202 100.499 223.215 100.608 223.204 100.716L223.061 102.27C223.037 102.501 222.928 102.715 222.754 102.872C222.579 103.029 222.352 103.118 222.115 103.124Z" fill="white"/>
<path d="M229.087 103.124C228.976 103.125 228.865 103.103 228.762 103.06C228.659 103.017 228.567 102.952 228.492 102.872C228.417 102.791 228.36 102.696 228.325 102.592C228.29 102.488 228.278 102.379 228.29 102.27L228.621 98.6237C228.645 98.3939 228.754 98.1807 228.929 98.0246C229.103 97.8685 229.33 97.7803 229.567 97.7768C229.678 97.7754 229.789 97.7969 229.891 97.8399C229.993 97.8829 230.084 97.9464 230.16 98.0264C230.235 98.1063 230.292 98.2008 230.327 98.3038C230.362 98.4067 230.375 98.5157 230.364 98.6237L230.034 102.27C230.01 102.501 229.901 102.715 229.726 102.872C229.552 103.029 229.325 103.118 229.087 103.124Z" fill="white"/>
<path d="M225.601 103.123C225.489 103.125 225.378 103.103 225.276 103.06C225.173 103.017 225.081 102.952 225.006 102.872C224.93 102.791 224.874 102.696 224.839 102.592C224.804 102.488 224.792 102.379 224.804 102.27L225.037 99.6727C225.061 99.4413 225.171 99.2265 225.347 99.0692C225.523 98.9119 225.752 98.823 225.99 98.8195C226.102 98.8179 226.212 98.8395 226.315 98.883C226.417 98.9264 226.509 98.9907 226.583 99.0714C226.658 99.1522 226.715 99.2476 226.749 99.3513C226.783 99.455 226.793 99.5646 226.781 99.6727L226.547 102.27C226.524 102.501 226.414 102.715 226.24 102.872C226.066 103.029 225.839 103.118 225.601 103.123Z" fill="white"/>
</g>
<g opacity="0.8">
<path d="M162.415 103.123H158.034C157.971 103.125 157.909 103.113 157.851 103.089C157.793 103.064 157.741 103.028 157.698 102.983C157.656 102.937 157.624 102.883 157.605 102.825C157.586 102.766 157.58 102.704 157.587 102.643L157.788 100.349C157.802 100.219 157.865 100.098 157.964 100.01C158.063 99.9211 158.192 99.871 158.326 99.8686H162.706C162.769 99.8673 162.832 99.8792 162.89 99.9035C162.948 99.9278 163 99.9639 163.042 100.009C163.084 100.055 163.116 100.109 163.136 100.167C163.155 100.226 163.161 100.288 163.153 100.349L162.946 102.643C162.935 102.773 162.874 102.895 162.776 102.984C162.677 103.072 162.549 103.122 162.415 103.123Z" fill="white"/>
<path d="M164.443 102.498C164.38 102.499 164.317 102.487 164.259 102.463C164.2 102.439 164.148 102.403 164.105 102.357C164.062 102.312 164.03 102.258 164.01 102.199C163.99 102.141 163.983 102.079 163.989 102.017L164.087 100.968C164.099 100.838 164.161 100.716 164.261 100.627C164.36 100.539 164.49 100.489 164.624 100.488C164.687 100.487 164.75 100.499 164.808 100.523C164.866 100.547 164.918 100.583 164.96 100.629C165.003 100.674 165.034 100.728 165.054 100.787C165.073 100.845 165.079 100.907 165.072 100.968L164.981 102.017C164.967 102.148 164.904 102.268 164.805 102.357C164.706 102.445 164.577 102.495 164.443 102.498Z" fill="white"/>
</g>
<path d="M204.88 156.06C213.6 147.919 214.469 135.003 206.822 127.212C199.175 119.421 185.907 119.705 177.187 127.846C168.467 135.988 167.598 148.904 175.245 156.695C182.892 164.486 196.16 164.202 204.88 156.06Z" fill="white"/>
<path d="M191.108 141.176C185.613 141.176 180.967 143.218 180.572 147.648L180.131 152.571H200.044L200.485 147.648C200.88 143.218 196.61 141.176 191.108 141.176Z" fill="#1BAC4B"/>
<path d="M191.29 139.147C193.843 139.147 195.022 137.131 195.242 134.641C195.463 132.151 194.653 130.135 192.1 130.135C189.547 130.135 188.374 132.158 188.147 134.641C187.92 137.125 188.737 139.147 191.29 139.147Z" fill="#1BAC4B"/>
<path d="M210.833 170.248C209.479 170.248 208.332 170.754 208.241 171.847L208.131 173.067H213.049L213.16 171.847C213.25 170.754 212.194 170.248 210.833 170.248Z" fill="#1BAC4B"/>
<path d="M210.879 169.749C211.527 169.749 211.799 169.25 211.857 168.637C211.915 168.024 211.708 167.524 211.079 167.524C210.451 167.524 210.159 168.024 210.101 168.637C210.043 169.25 210.25 169.749 210.879 169.749Z" fill="#1BAC4B"/>
<path d="M195.696 198.448H176.256C175.729 198.457 175.206 198.357 174.721 198.154C174.237 197.951 173.803 197.649 173.447 197.27C173.092 196.89 172.823 196.441 172.659 195.952C172.496 195.463 172.44 194.946 172.498 194.435C172.613 193.348 173.132 192.34 173.957 191.601C174.782 190.861 175.855 190.442 176.975 190.422H196.415C196.942 190.413 197.465 190.514 197.949 190.718C198.432 190.921 198.866 191.223 199.222 191.602C199.577 191.982 199.846 192.43 200.01 192.919C200.174 193.407 200.23 193.924 200.174 194.435C200.06 195.522 199.541 196.531 198.716 197.27C197.891 198.01 196.816 198.429 195.696 198.448Z" fill="#1BAC4B"/>
<path d="M193.344 243.206H172.536C171.978 243.221 171.423 243.118 170.91 242.905C170.396 242.692 169.935 242.373 169.559 241.971C169.182 241.569 168.899 241.092 168.729 240.573C168.558 240.055 168.504 239.506 168.571 238.966L169.899 224.164C170.018 223.016 170.564 221.95 171.435 221.168C172.306 220.387 173.44 219.944 174.623 219.923H195.437C195.993 219.914 196.546 220.02 197.057 220.235C197.568 220.45 198.027 220.769 198.402 221.17C198.777 221.571 199.061 222.046 199.233 222.562C199.406 223.078 199.463 223.624 199.403 224.164L198.074 238.966C197.953 240.114 197.404 241.179 196.533 241.96C195.662 242.741 194.527 243.185 193.344 243.206Z" fill="#1BAC4B"/>
<g opacity="0.6">
<path d="M186.929 227.899C186.963 227.576 186.926 227.25 186.821 226.942C186.716 226.634 186.545 226.351 186.32 226.112C186.094 225.873 185.819 225.683 185.513 225.556C185.207 225.428 184.877 225.365 184.544 225.371C183.835 225.381 183.154 225.644 182.63 226.109C182.106 226.575 181.775 227.212 181.699 227.899C181.658 228.284 181.716 228.672 181.869 229.029C182.022 229.386 182.264 229.699 182.574 229.941L182.12 235.041C182.098 235.234 182.119 235.43 182.18 235.615C182.242 235.799 182.343 235.969 182.477 236.113C182.612 236.257 182.776 236.371 182.959 236.447C183.142 236.524 183.34 236.562 183.54 236.558C183.962 236.549 184.366 236.39 184.677 236.111C184.987 235.831 185.182 235.451 185.224 235.041L185.684 229.941C186.032 229.709 186.323 229.407 186.538 229.054C186.753 228.701 186.886 228.307 186.929 227.899Z" fill="white"/>
</g>
<path d="M195.618 223.008H192.936L193.584 215.683C193.697 214.666 193.587 213.638 193.261 212.666C192.936 211.694 192.402 210.8 191.696 210.045C190.989 209.289 190.126 208.689 189.163 208.284C188.2 207.878 187.16 207.677 186.112 207.694C183.884 207.737 181.749 208.572 180.109 210.044C178.469 211.515 177.437 213.521 177.209 215.683L176.561 223.008H173.878L174.526 215.683C174.828 212.814 176.196 210.152 178.372 208.199C180.548 206.247 183.382 205.138 186.339 205.084C187.73 205.061 189.111 205.327 190.389 205.864C191.667 206.401 192.813 207.197 193.752 208.2C194.69 209.202 195.399 210.388 195.831 211.678C196.264 212.968 196.41 214.333 196.26 215.683L195.618 223.008Z" fill="#1BAC4B"/>
<path d="M211.164 181.466L211.248 180.752C211.265 180.587 211.247 180.419 211.193 180.261C211.14 180.103 211.053 179.958 210.938 179.835C210.823 179.712 210.682 179.614 210.526 179.548C210.369 179.482 210.2 179.448 210.03 179.45C209.667 179.457 209.319 179.594 209.052 179.833C208.784 180.073 208.616 180.4 208.578 180.752L208.513 181.454C208.368 181.458 208.23 181.513 208.123 181.61C208.017 181.706 207.951 181.837 207.937 181.978L207.768 183.874C207.76 183.94 207.766 184.008 207.787 184.071C207.808 184.135 207.842 184.193 207.889 184.243C207.935 184.292 207.991 184.331 208.055 184.357C208.118 184.383 208.186 184.395 208.254 184.392H210.924C211.069 184.39 211.207 184.336 211.313 184.24C211.42 184.145 211.486 184.014 211.501 183.874L211.669 181.978C211.675 181.911 211.666 181.844 211.643 181.78C211.619 181.717 211.583 181.659 211.535 181.611C211.487 181.563 211.429 181.525 211.365 181.5C211.301 181.475 211.233 181.463 211.164 181.466ZM209.952 179.785C210.081 179.784 210.208 179.809 210.326 179.858C210.444 179.908 210.55 179.982 210.637 180.074C210.724 180.167 210.789 180.276 210.83 180.395C210.871 180.514 210.885 180.64 210.872 180.765L210.807 181.466H208.799L208.863 180.765C208.892 180.5 209.018 180.255 209.218 180.075C209.419 179.894 209.679 179.791 209.952 179.785Z" fill="#1BAC4B"/>
<path d="M170.975 182.218L170.042 182.029C170.016 182.024 169.991 182.013 169.97 181.997C169.949 181.981 169.932 181.961 169.92 181.938C169.908 181.915 169.902 181.889 169.902 181.863C169.901 181.837 169.907 181.812 169.919 181.789L170.307 180.891C170.324 180.852 170.325 180.809 170.312 180.769C170.298 180.73 170.271 180.696 170.235 180.674C170.198 180.652 170.155 180.643 170.112 180.649C170.07 180.656 170.031 180.676 170.003 180.708L169.296 181.416C169.28 181.437 169.258 181.454 169.233 181.465C169.208 181.477 169.181 181.483 169.154 181.483C169.126 181.483 169.099 181.477 169.075 181.465C169.05 181.454 169.028 181.437 169.011 181.416L168.435 180.708C168.312 180.556 168.046 180.708 168.091 180.891L168.318 181.789C168.325 181.815 168.326 181.842 168.321 181.869C168.316 181.895 168.306 181.921 168.291 181.943C168.276 181.966 168.256 181.985 168.233 182C168.209 182.014 168.183 182.024 168.156 182.029L167.19 182.218C166.983 182.256 166.957 182.541 167.158 182.579L168.091 182.768C168.117 182.773 168.142 182.784 168.163 182.8C168.184 182.815 168.201 182.836 168.212 182.859C168.224 182.883 168.229 182.908 168.228 182.934C168.228 182.96 168.221 182.986 168.208 183.008L167.832 183.912C167.816 183.951 167.814 183.994 167.828 184.034C167.841 184.073 167.868 184.107 167.905 184.129C167.941 184.151 167.985 184.16 168.027 184.154C168.07 184.148 168.108 184.127 168.137 184.095L168.843 183.388C168.861 183.368 168.883 183.353 168.908 183.343C168.932 183.332 168.959 183.327 168.985 183.327C169.012 183.327 169.039 183.332 169.063 183.343C169.088 183.353 169.11 183.368 169.128 183.388L169.705 184.095C169.828 184.247 170.094 184.095 170.042 183.912L169.815 183.015C169.805 182.961 169.818 182.906 169.849 182.861C169.881 182.816 169.929 182.785 169.983 182.774L170.949 182.585C171.15 182.541 171.176 182.256 170.975 182.218Z" fill="#263238"/>
<path d="M177.105 182.218L176.172 182.029C176.146 182.024 176.121 182.013 176.1 181.997C176.079 181.981 176.062 181.961 176.05 181.938C176.038 181.915 176.032 181.889 176.032 181.863C176.032 181.837 176.037 181.812 176.049 181.789L176.437 180.891C176.454 180.852 176.455 180.809 176.442 180.769C176.429 180.73 176.401 180.696 176.365 180.674C176.328 180.652 176.285 180.643 176.242 180.649C176.2 180.656 176.161 180.676 176.133 180.708L175.427 181.416C175.41 181.437 175.388 181.454 175.363 181.465C175.339 181.477 175.311 181.483 175.284 181.483C175.257 181.483 175.229 181.477 175.205 181.465C175.18 181.454 175.158 181.437 175.141 181.416L174.565 180.708C174.442 180.556 174.176 180.708 174.228 180.891L174.455 181.789C174.46 181.815 174.46 181.843 174.455 181.869C174.449 181.896 174.438 181.921 174.423 181.943C174.407 181.966 174.387 181.985 174.363 182C174.34 182.014 174.314 182.024 174.286 182.029L173.321 182.218C173.113 182.256 173.087 182.541 173.288 182.579L174.221 182.768C174.247 182.773 174.272 182.784 174.293 182.8C174.314 182.816 174.331 182.836 174.343 182.859C174.355 182.882 174.361 182.908 174.361 182.933C174.361 182.959 174.356 182.985 174.344 183.008L173.956 183.906C173.939 183.944 173.938 183.988 173.951 184.027C173.964 184.067 173.992 184.101 174.028 184.123C174.065 184.145 174.108 184.154 174.151 184.147C174.193 184.141 174.232 184.12 174.26 184.089L174.966 183.381C174.985 183.362 175.007 183.347 175.031 183.336C175.056 183.326 175.082 183.32 175.109 183.32C175.136 183.32 175.162 183.326 175.187 183.336C175.211 183.347 175.233 183.362 175.252 183.381L175.828 184.089C175.951 184.241 176.217 184.089 176.172 183.906L175.945 183.008C175.939 182.982 175.939 182.955 175.944 182.929C175.949 182.903 175.96 182.878 175.975 182.855C175.99 182.833 176.009 182.814 176.032 182.799C176.055 182.784 176.08 182.773 176.107 182.768L177.072 182.579C177.28 182.541 177.306 182.256 177.105 182.218Z" fill="#263238"/>
<path d="M183.235 182.218L182.308 182.029C182.282 182.025 182.256 182.015 182.235 181.999C182.213 181.984 182.195 181.963 182.183 181.94C182.171 181.916 182.165 181.89 182.165 181.864C182.166 181.838 182.172 181.812 182.185 181.788L182.574 180.891C182.599 180.851 182.606 180.803 182.595 180.757C182.583 180.711 182.554 180.672 182.512 180.648C182.471 180.623 182.422 180.616 182.375 180.627C182.328 180.639 182.288 180.668 182.263 180.708L181.563 181.416C181.545 181.437 181.523 181.454 181.498 181.465C181.473 181.477 181.445 181.483 181.417 181.483C181.389 181.483 181.362 181.477 181.337 181.465C181.311 181.454 181.289 181.437 181.272 181.416L180.695 180.708C180.572 180.556 180.306 180.708 180.358 180.891L180.585 181.788C180.59 181.815 180.591 181.842 180.586 181.868C180.58 181.894 180.57 181.919 180.555 181.942C180.54 181.964 180.52 181.983 180.498 181.998C180.475 182.013 180.449 182.023 180.423 182.029L179.457 182.218C179.25 182.256 179.224 182.541 179.425 182.578L180.351 182.768C180.377 182.773 180.402 182.784 180.423 182.8C180.444 182.816 180.461 182.836 180.473 182.859C180.485 182.882 180.491 182.908 180.491 182.933C180.492 182.959 180.486 182.985 180.474 183.008L180.086 183.906C180.061 183.946 180.053 183.994 180.065 184.04C180.076 184.085 180.106 184.125 180.147 184.149C180.188 184.173 180.238 184.181 180.285 184.169C180.331 184.158 180.372 184.129 180.397 184.089L181.097 183.381C181.115 183.362 181.137 183.347 181.161 183.336C181.186 183.326 181.212 183.32 181.239 183.32C181.266 183.32 181.292 183.326 181.317 183.336C181.341 183.347 181.363 183.362 181.382 183.381L181.965 184.089C182.088 184.241 182.354 184.089 182.302 183.906L182.075 183.008C182.065 182.956 182.077 182.901 182.107 182.857C182.137 182.812 182.184 182.78 182.237 182.768L183.203 182.578C183.384 182.541 183.436 182.256 183.235 182.218Z" fill="#263238"/>
<path d="M189.372 182.218L188.438 182.029C188.412 182.024 188.388 182.013 188.367 181.997C188.346 181.981 188.329 181.961 188.317 181.938C188.305 181.915 188.299 181.889 188.298 181.863C188.298 181.837 188.304 181.812 188.315 181.789L188.704 180.891C188.72 180.852 188.722 180.809 188.708 180.769C188.695 180.73 188.668 180.696 188.631 180.674C188.595 180.652 188.551 180.643 188.509 180.649C188.467 180.656 188.428 180.676 188.4 180.708L187.693 181.416C187.676 181.437 187.655 181.454 187.63 181.465C187.605 181.477 187.578 181.483 187.551 181.483C187.523 181.483 187.496 181.477 187.471 181.465C187.447 181.454 187.425 181.437 187.408 181.416L186.831 180.708C186.708 180.556 186.443 180.708 186.488 180.891L186.715 181.789C186.721 181.815 186.722 181.842 186.718 181.869C186.713 181.895 186.703 181.921 186.687 181.943C186.672 181.966 186.652 181.985 186.629 182C186.606 182.014 186.58 182.024 186.553 182.029L185.587 182.218C185.38 182.256 185.354 182.541 185.587 182.579L186.52 182.768C186.546 182.773 186.571 182.784 186.592 182.8C186.613 182.815 186.63 182.836 186.641 182.859C186.653 182.883 186.658 182.908 186.657 182.934C186.657 182.96 186.65 182.986 186.637 183.008L186.255 183.906C186.238 183.944 186.237 183.988 186.25 184.027C186.264 184.067 186.291 184.101 186.327 184.123C186.364 184.145 186.407 184.154 186.45 184.147C186.492 184.141 186.531 184.12 186.559 184.089L187.266 183.381C187.284 183.362 187.306 183.347 187.33 183.336C187.355 183.326 187.381 183.32 187.408 183.32C187.435 183.32 187.461 183.326 187.486 183.336C187.51 183.347 187.532 183.362 187.551 183.381L188.127 184.089C188.25 184.241 188.516 184.089 188.464 183.906L188.238 183.008C188.228 182.955 188.24 182.9 188.272 182.855C188.303 182.81 188.351 182.779 188.406 182.768L189.372 182.579C189.546 182.541 189.572 182.256 189.372 182.218Z" fill="#263238"/>
<path d="M195.502 182.218L194.568 182.029C194.543 182.024 194.518 182.013 194.497 181.997C194.476 181.981 194.459 181.961 194.447 181.938C194.435 181.915 194.429 181.889 194.429 181.863C194.428 181.837 194.434 181.812 194.445 181.789L194.834 180.891C194.85 180.852 194.852 180.809 194.839 180.769C194.825 180.73 194.798 180.696 194.761 180.674C194.725 180.652 194.682 180.643 194.639 180.649C194.597 180.656 194.558 180.676 194.53 180.708L193.823 181.416C193.806 181.437 193.785 181.454 193.76 181.465C193.735 181.477 193.708 181.483 193.681 181.483C193.653 181.483 193.626 181.477 193.601 181.465C193.577 181.454 193.555 181.437 193.538 181.416L192.961 180.708C192.838 180.556 192.573 180.708 192.624 180.891L192.851 181.789C192.857 181.815 192.857 181.843 192.851 181.869C192.846 181.896 192.835 181.921 192.819 181.943C192.804 181.966 192.783 181.985 192.76 182C192.736 182.014 192.71 182.024 192.683 182.029L191.717 182.218C191.51 182.256 191.484 182.541 191.685 182.579L192.618 182.768C192.644 182.773 192.668 182.784 192.689 182.8C192.71 182.816 192.728 182.836 192.739 182.859C192.751 182.882 192.758 182.908 192.758 182.933C192.758 182.959 192.752 182.985 192.741 183.008L192.352 183.906C192.336 183.944 192.335 183.988 192.348 184.027C192.361 184.067 192.389 184.101 192.425 184.123C192.462 184.145 192.505 184.154 192.547 184.147C192.59 184.141 192.629 184.12 192.657 184.089L193.363 183.381C193.381 183.362 193.403 183.347 193.428 183.336C193.453 183.326 193.479 183.32 193.506 183.32C193.533 183.32 193.559 183.326 193.584 183.336C193.608 183.347 193.63 183.362 193.648 183.381L194.225 184.089C194.348 184.241 194.614 184.089 194.568 183.906L194.342 183.008C194.336 182.982 194.336 182.955 194.341 182.929C194.346 182.903 194.356 182.878 194.371 182.855C194.386 182.833 194.406 182.814 194.429 182.799C194.451 182.784 194.477 182.773 194.504 182.768L195.469 182.579C195.696 182.541 195.696 182.256 195.502 182.218Z" fill="#263238"/>
<path d="M201.632 182.218L200.699 182.029C200.672 182.024 200.648 182.013 200.627 181.997C200.606 181.981 200.589 181.961 200.578 181.938C200.566 181.914 200.561 181.888 200.561 181.862C200.562 181.837 200.569 181.811 200.582 181.788L200.971 180.891C200.983 180.871 200.991 180.849 200.995 180.826C200.998 180.803 200.997 180.78 200.992 180.757C200.986 180.734 200.976 180.713 200.962 180.694C200.947 180.676 200.93 180.66 200.909 180.648C200.889 180.636 200.866 180.628 200.842 180.624C200.819 180.621 200.795 180.622 200.772 180.627C200.749 180.633 200.727 180.643 200.707 180.657C200.688 180.67 200.672 180.688 200.66 180.708L199.96 181.416C199.942 181.437 199.92 181.454 199.895 181.465C199.87 181.477 199.842 181.483 199.814 181.483C199.786 181.483 199.759 181.477 199.733 181.465C199.708 181.454 199.686 181.437 199.668 181.416L199.092 180.708C198.968 180.556 198.703 180.708 198.755 180.891L198.981 181.788C198.987 181.815 198.987 181.842 198.982 181.868C198.977 181.894 198.967 181.919 198.952 181.942C198.937 181.964 198.917 181.983 198.895 181.998C198.872 182.013 198.846 182.023 198.819 182.029L197.854 182.218C197.646 182.256 197.621 182.541 197.821 182.578L198.748 182.768C198.774 182.773 198.799 182.784 198.82 182.8C198.841 182.816 198.858 182.836 198.87 182.859C198.881 182.882 198.888 182.908 198.888 182.933C198.888 182.959 198.883 182.985 198.871 183.008L198.482 183.906C198.457 183.946 198.45 183.994 198.462 184.04C198.473 184.085 198.503 184.125 198.544 184.149C198.585 184.173 198.635 184.181 198.681 184.169C198.728 184.158 198.769 184.129 198.793 184.089L199.493 183.381C199.511 183.362 199.534 183.347 199.558 183.336C199.583 183.326 199.609 183.32 199.636 183.32C199.663 183.32 199.689 183.326 199.714 183.336C199.738 183.347 199.76 183.362 199.778 183.381L200.355 184.089C200.385 184.122 200.426 184.144 200.471 184.152C200.516 184.159 200.562 184.152 200.602 184.131C200.641 184.109 200.673 184.075 200.69 184.035C200.708 183.994 200.711 183.948 200.699 183.906L200.472 183.008C200.462 182.956 200.473 182.901 200.504 182.857C200.534 182.812 200.58 182.78 200.634 182.768L201.599 182.578C201.807 182.541 201.833 182.256 201.632 182.218Z" fill="#263238"/>
<path d="M186.851 169.13H175.342C174.989 169.135 174.65 169.267 174.39 169.5C174.13 169.733 173.966 170.051 173.93 170.394C173.911 170.555 173.928 170.718 173.98 170.872C174.031 171.027 174.116 171.168 174.228 171.288C174.341 171.408 174.478 171.503 174.631 171.567C174.784 171.63 174.949 171.661 175.116 171.658H186.624C186.977 171.652 187.316 171.52 187.576 171.287C187.836 171.054 188 170.736 188.037 170.394C188.054 170.232 188.036 170.07 187.984 169.916C187.932 169.762 187.848 169.621 187.736 169.501C187.623 169.382 187.487 169.287 187.334 169.223C187.182 169.159 187.017 169.127 186.851 169.13Z" fill="#263238"/>
<path d="M198.541 169.13H191.86C191.507 169.136 191.169 169.268 190.91 169.501C190.651 169.734 190.489 170.051 190.454 170.394C190.435 170.554 190.452 170.717 190.503 170.871C190.554 171.025 190.639 171.166 190.75 171.286C190.862 171.405 190.998 171.5 191.15 171.565C191.303 171.629 191.467 171.66 191.633 171.658H198.288C198.64 171.651 198.978 171.519 199.238 171.286C199.497 171.053 199.659 170.736 199.694 170.394C199.712 170.235 199.696 170.074 199.647 169.922C199.597 169.77 199.515 169.63 199.406 169.511C199.297 169.392 199.164 169.296 199.015 169.23C198.866 169.165 198.704 169.13 198.541 169.13Z" fill="#263238"/>
<path d="M207.36 226.42C203.292 227.931 199.62 230.306 196.61 233.372C194.782 231.988 192.602 231.114 190.305 230.844L190 230.8L189.87 232.292L190.039 232.355C192.559 233.26 194.69 234.971 196.085 237.209L196.305 237.562L196.545 237.183C199.228 233.005 203.016 229.608 207.509 227.349L207.658 227.274L207.742 226.288L207.36 226.42Z" fill="#263238"/>
<path opacity="0.2" d="M149.455 101.986C148.629 103.392 148.121 104.954 147.964 106.568L138.316 214.147H168.175L174.176 191.717L172.2 169.281L178.2 146.852L176.256 124.422L182.256 101.986H149.455Z" fill="black"/>
<path d="M173.632 118.102L179.632 95.6659H104.121L98.1266 118.102L100.097 140.532L94.1026 162.961L96.0725 185.397L90.0785 207.827H165.583L171.584 185.397L169.608 162.961L175.608 140.532L173.632 118.102Z" fill="#1BAC4B"/>
<path opacity="0.7" d="M173.632 118.102L179.632 95.6659H104.121L98.1266 118.102L100.097 140.532L94.1026 162.961L96.0725 185.397L90.0785 207.827H165.583L171.584 185.397L169.608 162.961L175.608 140.532L173.632 118.102Z" fill="white"/>
<path opacity="0.5" d="M173.632 118.102H98.1266L104.121 95.6659H179.632L173.632 118.102Z" fill="white"/>
<path opacity="0.5" d="M169.608 162.961H94.1026L100.097 140.531H175.608L169.608 162.961Z" fill="white"/>
<path opacity="0.5" d="M165.583 207.827H90.072L96.0725 185.397H171.584L165.583 207.827Z" fill="white"/>
<path opacity="0.2" d="M163.529 127.474C162.754 127.693 161.951 127.799 161.145 127.79C160.051 127.838 158.963 127.62 157.976 127.158C157.797 127.055 157.594 127.001 157.386 127C157.196 127.003 157.009 127.051 156.842 127.139H156.803C156.514 127.298 156.204 127.419 155.883 127.5C155.158 127.686 154.41 127.778 153.66 127.771C153.433 127.771 153.213 127.771 153.012 127.771C152.43 127.735 151.854 127.635 151.295 127.474C151.213 127.45 151.128 127.436 151.042 127.43C150.9 127.419 150.756 127.436 150.621 127.482C150.486 127.527 150.362 127.599 150.256 127.693C150.151 127.788 150.067 127.902 150.009 128.03C149.952 128.158 149.922 128.296 149.921 128.435V129.118H120.528C119.988 129.118 119.453 129.221 118.954 129.423C118.455 129.625 118.002 129.921 117.621 130.293C117.239 130.666 116.937 131.109 116.731 131.595C116.524 132.082 116.419 132.604 116.42 133.131V137.169C116.418 137.696 116.523 138.219 116.729 138.706C116.934 139.194 117.237 139.637 117.618 140.011C118 140.384 118.454 140.68 118.953 140.883C119.452 141.085 119.987 141.189 120.528 141.189H153.919H154.14C154.496 141.479 154.872 141.77 155.274 142.067C155.676 142.364 156.246 142.775 156.771 143.142C156.95 143.268 157.165 143.336 157.386 143.336C157.607 143.336 157.823 143.268 158.002 143.142C162.201 140.171 164.897 138.124 164.897 132.499V128.454C164.899 128.292 164.861 128.132 164.787 127.988C164.713 127.843 164.605 127.717 164.471 127.622C164.337 127.526 164.182 127.462 164.018 127.437C163.855 127.411 163.687 127.424 163.529 127.474Z" fill="black"/>
<path d="M153.278 126.899H119.893C117.62 126.899 115.778 128.696 115.778 130.912V134.951C115.778 137.167 117.62 138.964 119.893 138.964H153.278C155.55 138.964 157.393 137.167 157.393 134.951V130.912C157.393 128.696 155.55 126.899 153.278 126.899Z" fill="#1BAC4B"/>
<path d="M160.503 125.566C159.41 125.611 158.322 125.394 157.334 124.934C157.159 124.829 156.957 124.773 156.751 124.773C156.545 124.773 156.343 124.829 156.168 124.934C155.179 125.395 154.088 125.612 152.993 125.566C152.186 125.574 151.383 125.468 150.608 125.25C150.452 125.199 150.286 125.184 150.123 125.208C149.96 125.232 149.805 125.294 149.672 125.388C149.538 125.482 149.429 125.605 149.354 125.748C149.279 125.891 149.241 126.05 149.241 126.21V130.255C149.241 135.886 151.937 137.934 156.136 140.904C156.315 141.031 156.53 141.099 156.751 141.099C156.972 141.099 157.188 141.031 157.367 140.904C161.566 137.934 164.262 135.886 164.262 130.255V126.21C164.261 126.05 164.221 125.891 164.145 125.748C164.07 125.605 163.96 125.482 163.826 125.388C163.692 125.294 163.537 125.233 163.374 125.209C163.211 125.185 163.044 125.199 162.888 125.25C162.113 125.468 161.31 125.575 160.503 125.566Z" fill="#1BAC4B"/>
<path opacity="0.3" d="M160.503 125.566C159.41 125.611 158.322 125.394 157.334 124.934C157.159 124.829 156.957 124.773 156.751 124.773C156.545 124.773 156.343 124.829 156.168 124.934C155.179 125.395 154.088 125.612 152.993 125.566C152.186 125.574 151.383 125.468 150.608 125.25C150.452 125.199 150.286 125.184 150.123 125.208C149.96 125.232 149.805 125.294 149.672 125.388C149.538 125.482 149.429 125.605 149.354 125.748C149.279 125.891 149.241 126.05 149.241 126.21V130.255C149.241 135.886 151.937 137.934 156.136 140.904C156.315 141.031 156.53 141.099 156.751 141.099C156.972 141.099 157.188 141.031 157.367 140.904C161.566 137.934 164.262 135.886 164.262 130.255V126.21C164.261 126.05 164.221 125.891 164.145 125.748C164.07 125.605 163.96 125.482 163.826 125.388C163.692 125.294 163.537 125.233 163.374 125.209C163.211 125.185 163.044 125.199 162.888 125.25C162.113 125.468 161.31 125.575 160.503 125.566Z" fill="white"/>
<path opacity="0.2" d="M156.168 124.921C155.179 125.383 154.088 125.6 152.993 125.553C152.186 125.561 151.383 125.455 150.608 125.237C150.452 125.186 150.286 125.172 150.123 125.196C149.96 125.22 149.805 125.281 149.672 125.375C149.538 125.469 149.429 125.593 149.354 125.736C149.279 125.879 149.241 126.037 149.241 126.198V130.243C149.241 135.874 151.937 137.921 156.136 140.892C156.324 141.025 156.551 141.094 156.784 141.088V124.757C156.566 124.753 156.353 124.81 156.168 124.921Z" fill="white"/>
<path d="M162.771 129.156C160.245 130.121 157.995 131.667 156.213 133.662C154.971 132.768 153.514 132.2 151.982 132.012H151.781V132.979L151.891 133.017C153.595 133.617 155.063 134.722 156.09 136.177L156.252 136.405L156.388 136.158C157.878 133.458 160.147 131.243 162.914 129.788L163.011 129.743V129.111L162.771 129.156Z" fill="#263238"/>
<path d="M178.297 101.98H175.433C175.065 101.986 174.699 101.916 174.36 101.774C174.022 101.632 173.718 101.421 173.47 101.156C173.221 100.89 173.034 100.576 172.92 100.234C172.806 99.8923 172.768 99.5307 172.809 99.1734L173.061 96.38C173.139 95.6203 173.5 94.9148 174.076 94.3976C174.652 93.8803 175.402 93.5872 176.185 93.5739H179.049C179.418 93.5663 179.784 93.6357 180.124 93.7774C180.463 93.919 180.767 94.1298 181.016 94.3954C181.265 94.6611 181.453 94.9756 181.568 95.3178C181.682 95.6601 181.72 96.0222 181.68 96.38L181.427 99.1734C181.34 99.9306 180.975 100.632 180.4 101.147C179.825 101.663 179.078 101.958 178.297 101.98Z" fill="#1BAC4B"/>
<path d="M179.49 96.3737L178.867 95.7037L177.299 97.1068L175.99 95.7037L175.245 96.3737L176.561 97.7767L174.999 99.1797L175.621 99.8433L177.183 98.4403L178.498 99.8433L179.237 99.1797L177.921 97.7767L179.49 96.3737Z" fill="white"/>
<path d="M114.288 126.078C115.947 127.841 117.528 129.667 119.102 131.507C120.677 133.346 122.2 135.223 123.716 137.106C123.781 137.188 123.755 137.157 123.768 137.182C123.781 137.207 123.768 137.213 123.768 137.22C123.779 137.243 123.795 137.265 123.813 137.283C123.869 137.36 123.939 137.425 124.02 137.475C124.101 137.524 124.192 137.558 124.286 137.574C124.36 137.583 124.434 137.583 124.507 137.574C124.546 137.577 124.585 137.577 124.623 137.574H124.682C124.714 137.574 124.682 137.574 124.785 137.536L126.405 136.676C128.583 135.551 130.779 134.452 133.047 133.466L134.946 135.76C133.119 137.397 131.214 139.451 129.289 140.955L127.837 142.067C127.747 142.139 127.652 142.205 127.552 142.263C127.442 142.339 127.328 142.409 127.209 142.472C126.974 142.603 126.732 142.722 126.483 142.826C125.981 143.031 125.454 143.174 124.915 143.249C123.825 143.405 122.712 143.297 121.675 142.933C121.147 142.75 120.647 142.502 120.185 142.194C119.951 142.042 119.731 141.865 119.537 141.694C119.426 141.606 119.336 141.505 119.232 141.41L118.973 141.157C117.256 139.438 115.564 137.706 113.905 135.943C112.247 134.18 110.607 132.404 109.039 130.559L114.288 126.078Z" fill="#B55B52"/>
<path d="M132.192 134.856L133.702 130.122L137.681 132.056C137.681 132.056 137.097 135.507 134.207 136.107L132.192 134.856Z" fill="#B55B52"/>
<path d="M135.289 128.814L138.879 129.775L137.674 132.056L133.695 130.122L135.289 128.814Z" fill="#B55B52"/>
<path d="M93.3703 127.367C92.9426 129.377 92.4113 131.367 91.8605 133.352C91.3097 135.336 90.707 137.302 90.0785 139.267L89.8452 140.007L89.7286 140.373C89.7129 140.426 89.6912 140.477 89.6638 140.525C89.5899 140.728 89.5483 140.942 89.5406 141.157C89.527 141.616 89.6582 142.069 89.9165 142.453C90.0439 142.621 90.1848 142.78 90.3377 142.927L90.8755 143.502L91.9382 144.658C92.6316 145.442 93.3314 146.226 93.9924 147.047L91.7309 149.575C90.7978 149.057 89.9035 148.495 89.0093 147.939L87.6809 147.079L87.0329 146.643C86.8126 146.491 86.6311 146.39 86.2747 146.106C85.0069 145.052 84.132 143.619 83.7864 142.029C83.6125 141.219 83.5709 140.387 83.6633 139.565C83.6633 139.362 83.7281 139.135 83.7605 138.933L83.8318 138.553L83.9678 137.795C84.3307 135.766 84.7195 133.744 85.1537 131.734C85.5878 129.724 86.0544 127.721 86.6052 125.743L93.3703 127.367Z" fill="#B55B52"/>
<path d="M91.7762 146.845L94.446 145.512L95.6254 149.936C95.6254 149.936 93.4805 150.738 91.8216 149.708L91.7762 146.845Z" fill="#B55B52"/>
<path d="M98.1396 144.09L98.2627 148.16L95.2754 150.062L94.2386 145.594L98.1396 144.09Z" fill="#B55B52"/>
<path d="M106.881 106.473C106.946 106.783 107.173 107.004 107.38 106.966C107.587 106.928 107.711 106.637 107.646 106.334C107.581 106.031 107.354 105.803 107.147 105.841C106.939 105.879 106.816 106.176 106.881 106.473Z" fill="#263238"/>
<path d="M107.14 107.01C107.724 107.892 108.428 108.691 109.233 109.387C109.046 109.584 108.816 109.738 108.561 109.84C108.306 109.941 108.031 109.987 107.756 109.974L107.14 107.01Z" fill="#A02724"/>
<path d="M105.345 104.969C105.308 104.968 105.272 104.958 105.24 104.937C105.209 104.917 105.185 104.889 105.17 104.856C105.155 104.822 105.15 104.785 105.156 104.75C105.162 104.714 105.178 104.68 105.203 104.653C105.406 104.429 105.66 104.255 105.945 104.145C106.23 104.035 106.537 103.993 106.842 104.021C106.867 104.025 106.891 104.035 106.913 104.048C106.934 104.062 106.953 104.079 106.967 104.1C106.981 104.121 106.992 104.144 106.997 104.168C107.002 104.192 107.002 104.218 106.998 104.242C106.994 104.266 106.985 104.29 106.972 104.31C106.958 104.331 106.941 104.349 106.92 104.363C106.9 104.377 106.877 104.387 106.852 104.393C106.828 104.398 106.802 104.398 106.777 104.394C106.536 104.371 106.292 104.405 106.067 104.493C105.841 104.581 105.64 104.72 105.481 104.899C105.447 104.939 105.398 104.964 105.345 104.969Z" fill="#263238"/>
<path d="M97.537 110.878C98.2498 113.779 98.969 119.094 96.4159 121.022C96.4159 121.022 97.4138 123.967 104.192 123.967C111.644 123.967 107.756 122.071 107.756 122.071C103.686 121.3 103.79 117.855 104.516 115.599L97.537 110.878Z" fill="#B55B52"/>
<path d="M95.6189 121.559C95.1782 120.756 94.6858 119.833 95.6966 119.543C96.8112 119.227 103.959 118.639 106.065 119.233C105.417 120.352 106.512 121.761 106.512 121.761L95.6189 121.559Z" fill="#263238"/>
<path d="M101.542 257.173H106.214L106.68 247.997H102.002L101.542 257.173Z" fill="#B55B52"/>
<path d="M71.8697 255.909L76.6066 256.156L79.4837 247.112L74.7468 246.865L71.8697 255.909Z" fill="#B55B52"/>
<path d="M76.464 255.789L71.9993 254.848C71.9211 254.83 71.8392 254.84 71.7672 254.874C71.6953 254.909 71.6376 254.966 71.604 255.037L70.0553 258.317C70.0172 258.397 69.9983 258.484 70 258.572C70.0018 258.66 70.0242 258.746 70.0655 258.824C70.1068 258.902 70.1659 258.97 70.2383 259.023C70.3106 259.075 70.3943 259.11 70.483 259.126C72.0446 259.43 72.8222 259.499 74.7857 259.916C75.991 260.169 78.719 260.82 80.3844 261.18C82.0498 261.541 82.6265 259.973 81.9785 259.682C79.0625 258.387 77.8442 257.243 77.0537 256.175C76.9118 255.981 76.7021 255.844 76.464 255.789Z" fill="#263238"/>
<path d="M105.967 256.712H101.529C101.448 256.713 101.371 256.74 101.308 256.79C101.246 256.839 101.203 256.907 101.185 256.984L100.382 260.504C100.361 260.589 100.36 260.678 100.38 260.763C100.4 260.849 100.44 260.929 100.496 260.997C100.552 261.065 100.624 261.12 100.705 261.157C100.786 261.195 100.875 261.213 100.965 261.212C102.565 261.212 104.853 261.092 106.894 261.092C109.246 261.092 111.275 261.218 114.022 261.218C115.687 261.218 116.154 259.575 115.454 259.423C112.272 258.747 109.68 258.671 106.933 257.022C106.646 256.835 106.312 256.728 105.967 256.712Z" fill="#263238"/>
<path d="M87.9466 122.361C84.4214 123.998 83.4624 133.921 83.4624 133.921L92.191 137.852C93.6664 135.425 94.4702 132.665 94.5238 129.844C94.6987 124.719 91.5559 120.712 87.9466 122.361Z" fill="#263238"/>
<path opacity="0.4" d="M92.664 128.479C91.0894 130.868 91.2384 134.559 91.7827 137.675L92.1715 137.852C93.6455 135.424 94.4493 132.665 94.5043 129.844C94.5043 129.541 94.5043 129.212 94.5043 128.941L92.664 128.479Z" fill="black"/>
<path d="M112.305 122.121C112.305 122.121 116.634 126.887 112.545 156.376H90.8172C90.6682 153.121 92.7612 137.251 89.5212 121.919C91.9225 121.469 94.351 121.169 96.7918 121.022C99.8694 120.851 102.955 120.851 106.032 121.022C108.149 121.231 110.246 121.598 112.305 122.121Z" fill="#1BAC4B"/>
<path opacity="0.6" d="M112.305 122.121C112.305 122.121 116.634 126.887 112.545 156.376H90.8172C90.6682 153.121 92.7612 137.251 89.5212 121.919C91.9225 121.469 94.351 121.169 96.7918 121.022C99.8694 120.851 102.955 120.851 106.032 121.022C108.149 121.231 110.246 121.598 112.305 122.121Z" fill="#FAFAFA"/>
<path opacity="0.2" d="M114.204 131.134L114.126 131.064L109.804 128.814C109.363 135.305 112.337 139.375 114.106 141.151C114.328 137.816 114.361 134.472 114.204 131.134Z" fill="black"/>
<path opacity="0.2" d="M106.68 247.997L106.44 252.731H101.762L102.002 247.997H106.68Z" fill="black"/>
<path opacity="0.2" d="M74.7468 246.872L79.4837 247.112L77.9998 251.776L73.2629 251.53L74.7468 246.872Z" fill="black"/>
<path d="M96.0336 107.933C97.0769 111.725 97.4916 114.007 99.9216 115.587C103.537 117.963 108.035 115.233 108.177 111.207C108.3 107.585 106.577 101.98 102.397 101.215C101.474 101.037 100.52 101.092 99.6256 101.377C98.7312 101.661 97.9264 102.164 97.2881 102.837C96.6497 103.511 96.1993 104.334 95.9797 105.226C95.76 106.118 95.7786 107.05 96.0336 107.933Z" fill="#B55B52"/>
<path d="M104.84 156.376C104.84 156.376 100.226 186.655 97.7119 198.006C94.9255 210.456 80.0604 251.536 80.0604 251.536L72.7834 250C72.7834 250 82.1081 216.504 84.4474 199.137C85.3546 192.355 86.4497 181.441 87.8364 172.321C89.1778 163.473 90.8302 156.382 90.8302 156.382L104.84 156.376Z" fill="#263238"/>
<path d="M81.8035 249.166L80.4427 251.732L72.265 250L72.9518 247.605L81.8035 249.166Z" fill="#1BAC4B"/>
<path opacity="0.6" d="M81.8035 249.166L80.4427 251.732L72.265 250L72.9518 247.605L81.8035 249.166Z" fill="white"/>
<path opacity="0.6" d="M101.924 167.164C96.5909 168.181 97.1546 187.578 97.7962 197.55C99.3384 190.497 101.587 176.935 103.123 167.303C102.751 167.125 102.328 167.075 101.924 167.164Z" fill="black"/>
<path d="M112.545 156.376C112.545 156.376 114.715 186.004 114.275 198.088C113.815 210.658 107.704 251.808 107.704 251.808H100.822C100.822 251.808 100.57 211.36 100.265 199.042C99.9281 185.58 98.2627 156.369 98.2627 156.369L112.545 156.376Z" fill="#263238"/>
<path d="M109.026 249.141C109.058 249.141 108.637 251.928 108.637 251.928H100.265L100.038 249.438L109.026 249.141Z" fill="#1BAC4B"/>
<path opacity="0.6" d="M109.026 249.141C109.058 249.141 108.637 251.928 108.637 251.928H100.265L100.038 249.438L109.026 249.141Z" fill="white"/>
<path d="M109.771 127.664C109.771 135.615 114.106 138.888 114.106 138.888L121.176 132.176C119.503 129.449 117.597 126.863 115.48 124.447C111.391 119.878 109.771 122.557 109.771 127.664Z" fill="#263238"/>
<path opacity="0.2" d="M107.905 112.648C107.761 113.046 107.519 113.404 107.2 113.691C106.882 113.977 106.496 114.183 106.078 114.291C105.617 114.383 105.199 114.616 104.885 114.958C104.571 115.299 104.378 115.73 104.334 116.187C105.174 115.913 105.934 115.45 106.555 114.835C107.175 114.22 107.638 113.47 107.905 112.648Z" fill="black"/>
<path d="M106.078 100.381C107.529 98.592 105.294 98.4845 105.294 98.4845C105.877 96.3547 103.259 97.4986 103.259 97.4986C101.691 95.3877 100.803 97.96 100.803 97.96C99.1764 96.1714 98.8589 99.0913 98.8589 99.0913C97.2259 96.8224 96.3965 100.096 96.3965 100.096C94.8931 97.7388 93.973 100.804 93.973 100.804C90.869 99.7233 92.34 102.871 92.34 102.871C89.6962 102.94 91.8216 104.944 91.8216 104.944C88.6464 104.944 91.4458 106.719 91.4458 106.719C88.925 108.331 92.0938 108.767 92.0938 108.767C90.0396 111.927 93.5712 110.739 93.5712 110.739C92.1391 113.848 95.3078 112.477 95.3078 112.477C95.107 115.473 96.876 114.657 97.7314 114.101C97.8934 114.733 98.2044 115.365 98.7746 115.416C99.8827 115.561 100.071 113.52 100.071 113.52C100.071 113.52 101.094 114.303 101.956 113.88C102.818 113.457 102.494 112.389 102.494 112.389C102.681 112.525 102.909 112.599 103.142 112.599C103.376 112.599 103.603 112.525 103.79 112.389C104.16 112.11 104.16 110.101 103.693 109.393L105.378 108.761C105.378 108.761 106.628 108.59 106.071 106.979C105.735 106.052 105.705 105.046 105.987 104.103C107.892 103.231 106.324 102.207 106.324 102.207C108.534 100.823 106.078 100.381 106.078 100.381Z" fill="#263238"/>
<path d="M102.663 108.072C102.926 109.015 103.503 109.846 104.302 110.436C105.358 111.207 106.149 110.436 106.071 109.279C106.006 108.23 105.371 106.568 104.205 106.252C103.038 105.936 102.384 106.953 102.663 108.072Z" fill="#B55B52"/>
</svg>
