<svg width="168" height="31" viewBox="0 0 168 31" fill="none" xmlns="http://www.w3.org/2000/svg">
<path d="M40.26 24.22C38.74 24.22 37.44 23.92 36.36 23.32C35.28 22.72 34.4467 21.88 33.86 20.8C33.2867 19.7067 33 18.42 33 16.94C33 15.4733 33.2867 14.2 33.86 13.12C34.4467 12.0267 35.28 11.18 36.36 10.58C37.44 9.98 38.74 9.68 40.26 9.68C41.1933 9.68 42.0867 9.82667 42.94 10.12C43.7933 10.4133 44.4933 10.8133 45.04 11.32L44.08 13.78C43.48 13.3133 42.8733 12.9733 42.26 12.76C41.66 12.5333 41.0267 12.42 40.36 12.42C39.0133 12.42 37.9933 12.8133 37.3 13.6C36.62 14.3733 36.28 15.4867 36.28 16.94C36.28 18.3933 36.62 19.5133 37.3 20.3C37.9933 21.0867 39.0133 21.48 40.36 21.48C41.0267 21.48 41.66 21.3733 42.26 21.16C42.8733 20.9333 43.48 20.5867 44.08 20.12L45.04 22.58C44.4933 23.0733 43.7933 23.4733 42.94 23.78C42.0867 24.0733 41.1933 24.22 40.26 24.22ZM49.7613 24.22C49.0279 24.22 48.3813 24.08 47.8213 23.8C47.2613 23.52 46.8146 23.14 46.4813 22.66C46.1613 22.18 46.0013 21.64 46.0013 21.04C46.0013 20.3333 46.1879 19.7667 46.5613 19.34C46.9346 18.9133 47.5413 18.6133 48.3813 18.44C49.2213 18.2533 50.3346 18.16 51.7213 18.16H52.4413V17.82C52.4413 17.2333 52.3079 16.82 52.0413 16.58C51.7746 16.3267 51.3213 16.2 50.6813 16.2C50.1479 16.2 49.5813 16.2867 48.9813 16.46C48.3946 16.62 47.8079 16.8667 47.2213 17.2L46.4013 15.18C46.7479 14.9533 47.1679 14.7467 47.6613 14.56C48.1679 14.3733 48.6946 14.2333 49.2413 14.14C49.7879 14.0333 50.3079 13.98 50.8013 13.98C52.3213 13.98 53.4546 14.3267 54.2013 15.02C54.9479 15.7 55.3213 16.76 55.3213 18.2V24H52.5013V22.52C52.3013 23.04 51.9613 23.4533 51.4813 23.76C51.0146 24.0667 50.4413 24.22 49.7613 24.22ZM50.4413 22.2C51.0013 22.2 51.4746 22.0067 51.8613 21.62C52.2479 21.2333 52.4413 20.7333 52.4413 20.12V19.72H51.7413C50.7146 19.72 49.9879 19.8133 49.5613 20C49.1346 20.1733 48.9213 20.48 48.9213 20.92C48.9213 21.2933 49.0479 21.6 49.3013 21.84C49.5679 22.08 49.9479 22.2 50.4413 22.2ZM58.3341 24V16.44H56.4741V14.18H58.3341C58.3607 12.7933 58.7607 11.7533 59.5341 11.06C60.3207 10.3533 61.5141 9.95333 63.1141 9.86L64.2141 9.78L64.3941 11.98L63.4541 12.04C62.6807 12.08 62.1341 12.2467 61.8141 12.54C61.5074 12.82 61.3541 13.2533 61.3541 13.84V14.18H63.9141V16.44H61.3541V24H58.3341ZM70.0764 24.22C68.9164 24.22 67.9164 24.0133 67.0764 23.6C66.2497 23.1733 65.6097 22.58 65.1564 21.82C64.7164 21.0467 64.4964 20.14 64.4964 19.1C64.4964 18.0867 64.7097 17.2 65.1364 16.44C65.5764 15.6667 66.1697 15.0667 66.9164 14.64C67.6764 14.2 68.5497 13.98 69.5364 13.98C70.9631 13.98 72.0964 14.4333 72.9364 15.34C73.7764 16.2333 74.1964 17.4467 74.1964 18.98V19.74H67.3764C67.4831 20.5133 67.7631 21.08 68.2164 21.44C68.6831 21.7867 69.3231 21.96 70.1364 21.96C70.6697 21.96 71.2097 21.88 71.7564 21.72C72.3031 21.56 72.7964 21.3133 73.2364 20.98L74.0364 23C73.5431 23.3733 72.9364 23.6733 72.2164 23.9C71.5097 24.1133 70.7964 24.22 70.0764 24.22ZM69.6564 15.98C69.0164 15.98 68.4964 16.1733 68.0964 16.56C67.7097 16.9467 67.4697 17.4867 67.3764 18.18H71.6964C71.6164 16.7133 70.9364 15.98 69.6564 15.98ZM68.5564 12.9L70.6164 8.8H73.4964L70.5564 12.9H68.5564Z" fill="#1BAC4B"/>
<path d="M76.213 24V9.9H82.673C84.1796 9.9 85.3396 10.2267 86.153 10.88C86.9796 11.5333 87.393 12.4267 87.393 13.56C87.393 14.3067 87.2063 14.9533 86.833 15.5C86.4596 16.0333 85.9396 16.4333 85.273 16.7C86.073 16.9267 86.6863 17.3267 87.113 17.9C87.553 18.4733 87.773 19.18 87.773 20.02C87.773 21.2733 87.333 22.2533 86.453 22.96C85.5863 23.6533 84.3996 24 82.893 24H76.213ZM79.173 15.7H82.133C83.653 15.7 84.413 15.1133 84.413 13.94C84.413 12.78 83.653 12.2 82.133 12.2H79.173V15.7ZM79.173 21.7H82.473C83.273 21.7 83.8596 21.5467 84.233 21.24C84.6063 20.9333 84.793 20.4667 84.793 19.84C84.793 19.2267 84.6063 18.7667 84.233 18.46C83.8596 18.1533 83.273 18 82.473 18H79.173V21.7ZM89.7392 12.28V9.46H92.9992V12.28H89.7392ZM89.8592 24V14.18H92.8792V24H89.8592ZM98.9708 24.22C98.1041 24.22 97.2974 24.12 96.5508 23.92C95.8041 23.72 95.1841 23.4467 94.6908 23.1L95.4108 21.14C95.9041 21.4467 96.4641 21.6933 97.0908 21.88C97.7308 22.0533 98.3641 22.14 98.9908 22.14C99.5508 22.14 99.9641 22.0533 100.231 21.88C100.497 21.6933 100.631 21.4533 100.631 21.16C100.631 20.6933 100.291 20.4 99.6108 20.28L97.5108 19.9C96.6708 19.7533 96.0308 19.4533 95.5908 19C95.1508 18.5467 94.9308 17.9533 94.9308 17.22C94.9308 16.5533 95.1174 15.98 95.4908 15.5C95.8641 15.02 96.3774 14.6467 97.0308 14.38C97.6841 14.1133 98.4374 13.98 99.2908 13.98C99.9974 13.98 100.684 14.0733 101.351 14.26C102.017 14.4333 102.591 14.7133 103.071 15.1L102.311 17.04C101.911 16.7467 101.431 16.5067 100.871 16.32C100.324 16.1333 99.8108 16.04 99.3308 16.04C98.7308 16.04 98.2974 16.14 98.0308 16.34C97.7641 16.5267 97.6308 16.7667 97.6308 17.06C97.6308 17.5267 97.9441 17.82 98.5708 17.94L100.671 18.32C101.537 18.4667 102.197 18.76 102.651 19.2C103.104 19.6267 103.331 20.2133 103.331 20.96C103.331 21.9867 102.931 22.7867 102.131 23.36C101.331 23.9333 100.277 24.22 98.9708 24.22ZM109.777 24.22C107.017 24.22 105.637 22.88 105.637 20.2V16.44H103.777V14.18H105.637V11.3H108.657V14.18H111.557V16.44H108.657V20.08C108.657 20.64 108.784 21.06 109.037 21.34C109.304 21.62 109.724 21.76 110.297 21.76C110.47 21.76 110.65 21.74 110.837 21.7C111.037 21.66 111.25 21.6067 111.477 21.54L111.917 23.74C111.637 23.8867 111.304 24 110.917 24.08C110.53 24.1733 110.15 24.22 109.777 24.22ZM113.043 24V14.18H116.003V15.88C116.469 14.7333 117.469 14.1 119.003 13.98L119.883 13.92L120.063 16.46L118.363 16.64C116.869 16.7867 116.123 17.5467 116.123 18.92V24H113.043ZM125.829 24.22C124.776 24.22 123.856 24.0133 123.069 23.6C122.296 23.1733 121.696 22.58 121.269 21.82C120.843 21.0467 120.629 20.1333 120.629 19.08C120.629 18.04 120.843 17.14 121.269 16.38C121.696 15.6067 122.296 15.0133 123.069 14.6C123.856 14.1867 124.776 13.98 125.829 13.98C126.883 13.98 127.796 14.1867 128.569 14.6C129.356 15.0133 129.963 15.6067 130.389 16.38C130.829 17.14 131.049 18.04 131.049 19.08C131.049 20.1333 130.829 21.0467 130.389 21.82C129.963 22.58 129.356 23.1733 128.569 23.6C127.796 24.0133 126.883 24.22 125.829 24.22ZM125.829 21.96C126.469 21.96 126.989 21.7267 127.389 21.26C127.803 20.7933 128.009 20.0667 128.009 19.08C128.009 18.1067 127.803 17.3933 127.389 16.94C126.989 16.4733 126.469 16.24 125.829 16.24C125.189 16.24 124.669 16.4733 124.269 16.94C123.869 17.3933 123.669 18.1067 123.669 19.08C123.669 20.0667 123.869 20.7933 124.269 21.26C124.669 21.7267 125.189 21.96 125.829 21.96ZM137.609 24.22C134.849 24.22 133.469 22.88 133.469 20.2V16.44H131.609V14.18H133.469V11.3H136.489V14.18H139.389V16.44H136.489V20.08C136.489 20.64 136.616 21.06 136.869 21.34C137.136 21.62 137.556 21.76 138.129 21.76C138.302 21.76 138.482 21.74 138.669 21.7C138.869 21.66 139.082 21.6067 139.309 21.54L139.749 23.74C139.469 23.8867 139.136 24 138.749 24.08C138.362 24.1733 137.982 24.22 137.609 24.22Z" fill="black"/>
<path d="M12.3131 24.4186C11.9995 24.4413 11.7099 24.5118 11.4222 24.5921C11.0124 24.7066 10.613 24.8496 10.224 25.0218C9.62179 25.2884 9.0691 25.6314 8.57883 26.0745C8.17035 26.4436 7.8386 26.8698 7.57943 27.3549C7.38679 27.7155 7.26101 28.0984 7.18058 28.4975C7.16383 28.5806 7.14235 28.6524 7.03384 28.6355C6.93002 28.6192 6.95067 28.5333 6.95971 28.4755C7.01454 28.125 6.95552 27.7685 7.02195 27.419C7.12641 26.8694 7.23681 26.3178 7.50717 25.8237C7.62997 25.5992 7.76307 25.3747 7.92314 25.168C8.19676 24.8146 8.52445 24.5155 8.84181 24.206C8.95625 24.0943 9.0867 23.9958 9.22101 23.9085C9.64693 23.6316 10.0799 23.3674 10.5451 23.1578C10.9852 22.9595 11.4403 22.8034 11.9096 22.7045C12.2059 22.6421 12.5048 22.5803 12.8052 22.5311C13.1698 22.4714 13.5294 22.4847 13.8915 22.4716C14.3896 22.4537 14.8684 22.5688 15.3481 22.6813C15.6061 22.7419 15.8547 22.8271 16.0963 22.9338C16.1493 22.9572 16.1926 22.9533 16.2437 22.9278C16.4993 22.7999 16.7542 22.6718 16.9981 22.5216C17.2449 22.3696 17.504 22.2371 17.747 22.0797C17.9813 21.928 18.2021 21.7557 18.4285 21.5919C18.7742 21.3417 19.0975 21.0623 19.3941 20.7582C19.7596 20.3833 20.1038 19.9885 20.3858 19.541C20.5131 19.3389 20.6414 19.1378 20.7597 18.9303C20.9552 18.5871 21.1035 18.224 21.2432 17.8547C21.3668 17.5277 21.4502 17.1902 21.5001 16.8508C21.5376 16.596 21.5854 16.341 21.6099 16.0841C21.6239 15.9375 21.5465 15.8818 21.4037 15.9333C21.0171 16.0726 20.6251 16.1957 20.2279 16.2983C19.767 16.4174 19.3004 16.5025 18.8242 16.5574C18.5063 16.5941 18.1824 16.564 17.8691 16.6449C17.7895 16.6654 17.7041 16.6695 17.6213 16.6697C17.0848 16.6712 16.5463 16.6982 16.0127 16.6591C15.6379 16.6316 15.2571 16.641 14.8858 16.5543C14.7715 16.5276 14.6442 16.5582 14.5287 16.5344C14.1284 16.4523 13.7184 16.4438 13.3187 16.3403C13.0208 16.2631 12.7085 16.2243 12.4096 16.1463C11.9349 16.0223 11.466 15.8751 11.0026 15.7098C10.6651 15.5895 10.3314 15.4551 10.008 15.309C9.59555 15.1227 9.18589 14.9206 8.7999 14.6761C8.51109 14.4933 8.219 14.317 7.94382 14.1129C7.69837 13.9308 7.47439 13.7248 7.24737 13.5221C7.14664 13.4321 7.20101 13.2517 7.34299 13.2157C7.72159 13.1198 8.07308 12.9479 8.44572 12.8341C8.91167 12.6919 9.38173 12.5696 9.85454 12.4528C10.1464 12.3807 10.4434 12.3459 10.7361 12.2848C10.911 12.2483 11.0967 12.2208 11.2738 12.218C11.6858 12.2115 12.088 12.1366 12.4946 12.0943C12.5875 12.0846 12.6823 12.0782 12.7751 12.085C13.1347 12.1114 13.4899 12.0384 13.8482 12.0434C13.9173 12.0444 13.9495 11.9998 13.9766 11.9467C14.2095 11.4903 14.5711 11.1551 14.9822 10.8621C15.55 10.4574 16.1836 10.1599 16.7566 9.76455C17.3472 9.35698 17.7379 8.81049 17.8553 8.09541C17.903 7.80502 17.8411 7.52083 17.7196 7.24599C17.5366 6.83186 17.2565 6.50205 16.9096 6.21952C16.7544 6.09313 16.5599 6.08352 16.3834 6.05426C16.2174 6.02674 16.0507 5.98857 15.8814 5.96883C15.4502 5.91859 15.0156 5.86013 14.597 5.74968C14.1551 5.63311 13.7453 5.43821 13.4286 5.07514C13.116 4.71671 12.9414 4.30962 12.8224 3.85328C12.7073 3.41193 12.7108 2.96862 12.7839 2.54263C12.9031 1.84814 13.1933 1.21888 13.7807 0.772143C13.8428 0.724969 13.9142 0.674804 13.9755 0.729243C14.0432 0.789295 14.0176 0.878561 13.9813 0.959806C13.8631 1.22499 13.6949 1.46499 13.607 1.74638C13.4682 2.19099 13.4725 2.63033 13.6474 3.05892C13.7611 3.33725 13.9721 3.5532 14.2025 3.73824C14.5396 4.009 14.9316 4.1925 15.3097 4.39906C15.7965 4.66495 16.2684 4.9555 16.6687 5.35132C16.945 5.62463 17.2073 5.9092 17.4694 6.19563C17.6601 6.40403 17.906 6.55957 18.1168 6.75237C18.2478 6.87215 18.3509 7.01277 18.4648 7.14367C18.6759 7.38644 18.8483 7.66219 19.0023 7.94373C19.4687 8.7965 19.4356 9.79428 18.6745 10.5254C18.2826 10.9019 17.8365 11.1782 17.3533 11.415C17.008 11.5842 16.6373 11.6805 16.2863 11.8327C16.0965 11.915 15.8788 11.935 15.6956 12.0691C15.982 12.1042 16.2626 12.059 16.5399 12.1019C16.7289 12.1311 16.9089 12.2066 17.1031 12.2078C17.146 12.208 17.1687 12.2374 17.1725 12.2784C17.1766 12.3222 17.1688 12.3623 17.121 12.3807C17.0523 12.4071 16.982 12.4203 16.9074 12.4182C16.5283 12.4071 16.149 12.3899 15.7698 12.3916C15.5366 12.3926 15.3028 12.4117 15.0696 12.4238C14.8701 12.4342 14.7672 12.6177 14.656 12.7516C14.4264 13.028 14.3366 13.352 14.4177 13.7139C14.4399 13.8127 14.4753 13.902 14.5346 13.9829C14.5622 14.0206 14.5908 14.0576 14.618 14.0956C14.6627 14.158 14.7001 14.2353 14.643 14.2951C14.5854 14.3554 14.4926 14.3455 14.4249 14.3025C14.3156 14.2331 14.2017 14.1624 14.1137 14.0695C13.8791 13.8222 13.7205 13.536 13.739 13.1795C13.7489 12.9879 13.7176 12.7954 13.7602 12.6038C13.7815 12.508 13.7263 12.4389 13.6288 12.4677C13.382 12.5404 13.1249 12.5272 12.8757 12.5757C12.6518 12.6194 12.4227 12.6357 12.197 12.6599C11.8133 12.7008 11.4439 12.7872 11.0707 12.878C10.581 12.9972 10.1076 13.163 9.6367 13.3333C9.23548 13.4784 8.82521 13.6084 8.43516 13.8173C8.61477 13.9667 8.83253 13.9608 9.02761 14.0166C9.42861 14.1312 9.84552 14.1816 10.2478 14.2834C10.6401 14.3827 11.0376 14.4386 11.4328 14.512C11.6146 14.5458 11.8055 14.537 11.9856 14.5847C12.4153 14.6985 12.8581 14.6871 13.2938 14.7393C13.8343 14.8041 14.3755 14.8293 14.9173 14.8668C15.5825 14.9128 16.2474 14.9302 16.9107 14.8892C17.3604 14.8615 17.8144 14.8813 18.2602 14.7954C18.2908 14.7895 18.3224 14.7858 18.3534 14.7862C18.7624 14.7909 19.1633 14.7163 19.5676 14.6717C19.9136 14.6334 20.2424 14.5101 20.5867 14.4801C20.9883 14.4451 21.3629 14.3079 21.7482 14.2115C22.2611 14.0832 22.7636 13.9232 23.2461 13.705C23.5871 13.5508 23.6466 13.5654 23.6887 13.9208C23.7252 14.2287 23.7038 14.5436 23.7066 14.8553C23.7071 14.9118 23.6905 14.971 23.7466 15.012C23.792 15.0251 23.8171 14.9951 23.8374 14.9658C24.0937 14.5952 24.4476 14.3516 24.8611 14.1913C25.2059 14.0576 25.5714 13.9696 25.9357 13.987C26.5544 14.0166 27.1676 14.1265 27.6598 14.5461C28.019 14.8522 28.249 15.223 28.2742 15.7332C28.3028 16.3144 28.0899 16.792 27.7734 17.2351C27.5114 17.6019 27.1815 17.9139 26.8189 18.1864C26.2322 18.6272 25.6013 18.9929 24.9387 19.3076C24.3017 19.6101 23.6583 19.8974 23.001 20.1529C22.8959 20.1937 22.8064 20.2765 22.6826 20.2698C22.6226 20.2665 22.5509 20.296 22.5267 20.2107C22.5045 20.133 22.5444 20.0858 22.6121 20.0483C22.8796 19.9002 23.1442 19.7469 23.4114 19.5984C23.8784 19.3389 24.3495 19.0868 24.8129 18.8213C25.0782 18.6693 25.3315 18.4965 25.5905 18.3337C26.025 18.0606 26.4415 17.7618 26.8201 17.4156C27.0537 17.202 27.2515 16.9563 27.4186 16.6821C27.6399 16.3189 27.4938 15.9183 27.196 15.7278C26.9536 15.5727 26.6914 15.4503 26.395 15.483C25.7102 15.5588 25.1113 15.8208 24.6654 16.363C24.3857 16.7032 24.413 17.1493 24.708 17.4724C24.722 17.4878 24.7367 17.5026 24.75 17.5186C24.8055 17.5849 24.8284 17.6681 24.7759 17.7334C24.7262 17.7952 24.6448 17.7727 24.573 17.7439C24.1666 17.5803 23.8363 17.3219 23.5868 16.961C23.5723 16.94 23.5558 16.92 23.5378 16.902C23.5321 16.8962 23.5186 16.8983 23.4941 16.8946C23.468 17.0073 23.4458 17.1224 23.4146 17.235C23.2761 17.7345 23.1461 18.2348 22.9496 18.7185C22.722 19.2783 22.4456 19.8071 22.1223 20.3159C21.9742 20.5491 21.8251 20.7786 21.6336 20.9785C21.6044 21.009 21.5767 21.0439 21.5949 21.0895C21.6129 21.1346 21.6561 21.1468 21.6985 21.144C22.0318 21.122 22.3557 21.2141 22.6898 21.2178C23.0011 21.2213 23.3176 21.2676 23.6288 21.3151C23.9188 21.3594 24.2076 21.4185 24.4923 21.4897C24.8711 21.5845 25.2493 21.6799 25.617 21.8183C26.0067 21.965 26.3881 22.1233 26.7379 22.3503C27.2714 22.6965 27.7352 23.0991 27.9677 23.7228C28.227 24.4184 28.1438 25.0473 27.6899 25.6366C27.297 26.1466 26.7625 26.4386 26.1782 26.6604C26.1164 26.6839 26.0469 26.69 25.9802 26.6971C25.9329 26.7021 25.882 26.6952 25.8706 26.6349C25.8593 26.5751 25.8711 26.5291 25.9329 26.4919C26.3533 26.2388 26.7491 25.9541 27.0215 25.5347C27.2719 25.1491 27.3667 24.7374 27.174 24.2958C26.9283 23.7325 26.499 23.3404 25.9911 23.0151C25.7419 22.8556 25.4807 22.7189 25.2114 22.6074C24.6568 22.3776 24.0787 22.2246 23.4827 22.1316C23.2544 22.096 23.022 22.0798 22.7964 22.0227C22.7154 22.0021 22.6356 22.0283 22.5494 22.0532C22.5862 22.1553 22.6746 22.1666 22.7368 22.201C23.2357 22.4771 23.6164 22.8724 23.8943 23.3635C23.9924 23.537 24.0519 23.7315 24.0468 23.9429C24.0398 24.2326 24.0825 24.5354 23.9113 24.7879C23.7967 24.9571 23.7486 25.1605 23.6241 25.3147C23.428 25.5577 23.1863 25.7476 22.8975 25.8867C22.3342 26.1581 21.7331 26.1997 21.1272 26.2132C20.7438 26.2218 20.362 26.2048 19.977 26.1611C19.6477 26.1237 19.3132 26.0876 18.9999 26.0045C18.7093 25.9274 18.4044 25.8593 18.1318 25.7218C17.9405 25.6253 17.7325 25.5754 17.5438 25.4791C17.2807 25.3448 17.0004 25.2496 16.7394 25.1095C16.5858 25.0272 16.4018 25.0002 16.2515 24.9135C15.955 24.7425 15.6231 24.6694 15.3064 24.5643C15.0323 24.4734 14.7389 24.417 14.4427 24.3931C14.097 24.3653 13.7525 24.2921 13.4064 24.3003C13.0978 24.3077 12.787 24.3396 12.482 24.4035C12.4317 24.414 12.379 24.4137 12.3131 24.4186ZM21.6679 22.9427C21.5157 22.911 21.3632 22.8704 21.2066 22.8925C20.6349 22.9734 20.0968 23.1594 19.5905 23.4335C19.1812 23.655 18.779 23.8895 18.3726 24.1163C18.2143 24.2047 18.2023 24.2786 18.3637 24.3675C18.5117 24.4489 18.6239 24.5712 18.7627 24.6631C19.2544 24.9888 19.7401 25.3173 20.3055 25.5134C20.8925 25.7171 21.4922 25.7692 22.0924 25.6508C22.6156 25.5477 23.116 25.3672 23.523 24.9835C23.668 24.8469 23.6929 24.7062 23.6576 24.5447C23.5319 23.9691 23.1192 23.6222 22.6565 23.317C22.3618 23.1225 22.0304 23.0282 21.6679 22.9427Z" fill="black"/>
<path d="M9.4055 21.8102C9.79083 21.6438 10.1887 21.5981 10.5881 21.5334C11.248 21.4265 11.907 21.506 12.5648 21.47C12.8068 21.4567 13.0379 21.5249 13.2759 21.5383C13.3596 21.543 13.4338 21.5814 13.4515 21.6852C13.4722 21.8071 13.3695 21.797 13.3079 21.8306C13.2562 21.8589 13.1994 21.8628 13.1409 21.8588C12.5344 21.8173 11.9417 21.9175 11.346 22.0148C11.0158 22.0687 10.7113 22.1828 10.4228 22.3298C10.2089 22.4388 9.99742 22.5608 9.7905 22.6873C9.59068 22.8094 9.3747 22.8983 9.13251 22.8879C8.92127 22.8788 8.83337 22.7863 8.83206 22.5792C8.82946 22.1655 8.98484 21.9546 9.4055 21.8102Z" fill="black"/>
<path d="M7.70635 28.1567C7.69549 27.5842 7.89409 27.1115 8.28009 26.7141C8.29097 26.7029 8.30224 26.692 8.31325 26.681C8.36829 26.6256 8.44215 26.5794 8.50688 26.6277C8.57551 26.6789 8.55244 26.7723 8.52442 26.844C8.50226 26.9007 8.44524 26.9447 8.42664 27.0018C8.28701 27.4305 8.28391 27.8368 8.59371 28.2107C8.75859 28.4097 8.92799 28.6046 9.09495 28.8016C9.28195 29.0223 9.32761 29.5143 9.18538 29.7653C9.08177 29.9482 8.82321 30.0134 8.57392 29.93C8.01936 29.7446 7.75235 29.2481 7.71031 28.7187C7.69593 28.5376 7.70697 28.3544 7.70635 28.1567Z" fill="black"/>
<path d="M7.31404 21.7896C6.79237 21.9435 6.26863 22.0386 5.7667 22.2222C5.43732 22.3427 5.09918 22.4408 4.7816 22.5915C4.22083 22.8576 3.74287 23.2314 3.35634 23.719C3.29487 23.7966 3.22609 23.9122 3.12305 23.8325C3.0291 23.7598 3.0873 23.6439 3.1473 23.5528C3.50842 23.0049 3.97865 22.5733 4.5646 22.282C4.99087 22.07 5.45527 21.9527 5.90586 21.8011C6.36039 21.6481 6.83222 21.5843 7.29855 21.4996C7.61656 21.4419 7.94391 21.3922 8.27322 21.4251C8.33999 21.4317 8.4175 21.4162 8.41713 21.5197C8.41678 21.6152 8.341 21.5919 8.28344 21.6081C7.96966 21.6965 7.63869 21.6915 7.31404 21.7896Z" fill="black"/>
<path d="M8.16796 18.6767C8.19974 18.7851 8.26693 18.8597 8.31658 18.9445C8.36152 19.0212 8.40125 19.1215 8.30923 19.1812C8.22011 19.2389 8.14902 19.1773 8.09237 19.0944C7.77478 18.6298 7.53664 18.1295 7.36289 17.5929C7.11169 16.817 7.04829 16.0204 7.09083 15.2165C7.10951 14.8634 7.1593 14.5057 7.25926 14.1609C7.26935 14.1261 7.28428 14.0927 7.29612 14.0584C7.3144 14.0055 7.35294 13.9886 7.40576 13.9935C7.46839 13.9992 7.47492 14.0441 7.48072 14.0932C7.50568 14.3046 7.43471 14.5037 7.40551 14.7084C7.33106 15.2302 7.32253 15.7488 7.4625 16.2653C7.512 16.4479 7.51972 16.6423 7.54203 16.8318C7.59599 17.2901 7.76498 17.7138 7.93412 18.1371C8.00536 18.3154 8.0873 18.4895 8.16796 18.6767Z" fill="black"/>
<path d="M6.20517 26.9153C6.10268 26.9165 6.01404 26.92 5.92578 26.9157C5.75808 26.9076 5.61313 26.76 5.61538 26.6047C5.61742 26.4642 5.75473 26.3432 5.92536 26.3339C5.98244 26.3308 6.03986 26.3345 6.09707 26.333C6.3444 26.3267 6.58302 26.2904 6.78756 26.1341C6.84825 26.0878 6.92423 26.0501 6.98422 26.1121C7.03693 26.1666 7.02207 26.2488 6.9883 26.3172C6.97004 26.3541 6.9491 26.3931 6.91958 26.4206C6.70897 26.6172 6.51723 26.8415 6.20517 26.9153Z" fill="black"/>
</svg>
