<svg width="34" height="34" viewBox="0 0 34 34" fill="none" xmlns="http://www.w3.org/2000/svg">
<path d="M8.5 29.75H25.5C26.6272 29.75 27.7082 29.3023 28.5052 28.5052C29.3022 27.7082 29.75 26.6272 29.75 25.5V8.50004C29.75 7.37287 29.3022 6.29187 28.5052 5.49484C27.7082 4.69781 26.6272 4.25004 25.5 4.25004H24.0833C24.0833 3.87432 23.9341 3.51398 23.6684 3.24831C23.4027 2.98263 23.0424 2.83337 22.6667 2.83337C22.2909 2.83337 21.9306 2.98263 21.6649 3.24831C21.3993 3.51398 21.25 3.87432 21.25 4.25004H12.75C12.75 3.87432 12.6007 3.51398 12.3351 3.24831C12.0694 2.98263 11.7091 2.83337 11.3333 2.83337C10.9576 2.83337 10.5973 2.98263 10.3316 3.24831C10.0659 3.51398 9.91667 3.87432 9.91667 4.25004H8.5C7.37283 4.25004 6.29183 4.69781 5.4948 5.49484C4.69777 6.29187 4.25 7.37287 4.25 8.50004V25.5C4.25 26.6272 4.69777 27.7082 5.4948 28.5052C6.29183 29.3023 7.37283 29.75 8.5 29.75ZM7.08333 8.50004C7.08333 8.12432 7.23259 7.76398 7.49827 7.49831C7.76394 7.23263 8.12428 7.08337 8.5 7.08337H9.91667V8.50004C9.91667 8.87576 10.0659 9.2361 10.3316 9.50178C10.5973 9.76745 10.9576 9.91671 11.3333 9.91671C11.7091 9.91671 12.0694 9.76745 12.3351 9.50178C12.6007 9.2361 12.75 8.87576 12.75 8.50004V7.08337H21.25V8.50004C21.25 8.87576 21.3993 9.2361 21.6649 9.50178C21.9306 9.76745 22.2909 9.91671 22.6667 9.91671C23.0424 9.91671 23.4027 9.76745 23.6684 9.50178C23.9341 9.2361 24.0833 8.87576 24.0833 8.50004V7.08337H25.5C25.8757 7.08337 26.2361 7.23263 26.5017 7.49831C26.7674 7.76398 26.9167 8.12432 26.9167 8.50004V12.75H7.08333V8.50004ZM7.08333 15.5834H26.9167V25.5C26.9167 25.8758 26.7674 26.2361 26.5017 26.5018C26.2361 26.7675 25.8757 26.9167 25.5 26.9167H8.5C8.12428 26.9167 7.76394 26.7675 7.49827 26.5018C7.23259 26.2361 7.08333 25.8758 7.08333 25.5V15.5834Z" fill="#2D9CDB"/>
</svg>
