<svg width="209" height="209" viewBox="0 0 209 209" fill="none" xmlns="http://www.w3.org/2000/svg">
<path d="M82.8079 164.205C80.7021 164.351 78.756 164.82 76.8221 165.354C74.0685 166.114 71.3834 167.067 68.7684 168.216C64.7193 169.995 61.0015 172.288 57.7009 175.254C54.951 177.725 52.7151 180.58 50.9656 183.833C49.6652 186.251 48.8133 188.82 48.2656 191.498C48.1516 192.056 48.006 192.537 47.2776 192.422C46.5808 192.311 46.7211 191.734 46.7829 191.346C47.1577 188.994 46.7682 186.598 47.2208 184.252C47.9327 180.564 48.6845 176.862 50.5094 173.549C51.3383 172.044 52.2363 170.54 53.3151 169.154C55.1592 166.786 57.3653 164.784 59.5023 162.711C60.2728 161.964 61.1507 161.305 62.0542 160.721C64.9196 158.87 67.8319 157.104 70.9601 155.705C73.919 154.382 76.978 153.342 80.1314 152.687C82.1217 152.274 84.1301 151.864 86.1484 151.54C88.5981 151.146 91.0124 151.242 93.4439 151.161C96.7891 151.05 100.002 151.832 103.221 152.597C104.953 153.008 106.62 153.585 108.24 154.306C108.596 154.465 108.887 154.439 109.231 154.269C110.949 153.415 112.663 152.56 114.304 151.556C115.964 150.54 117.706 149.655 119.342 148.602C120.917 147.588 122.404 146.436 123.927 145.34C126.253 143.666 128.43 141.796 130.427 139.76C132.889 137.249 135.207 134.605 137.109 131.605C137.968 130.25 138.833 128.902 139.631 127.511C140.951 125.21 141.954 122.775 142.899 120.298C143.735 118.104 144.301 115.839 144.643 113.561C144.899 111.851 145.225 110.14 145.395 108.415C145.491 107.431 144.972 107.055 144.013 107.398C141.414 108.326 138.779 109.145 136.111 109.827C133.013 110.618 129.878 111.18 126.68 111.54C124.544 111.781 122.37 111.572 120.264 112.11C119.73 112.246 119.156 112.272 118.6 112.272C114.998 112.272 111.381 112.443 107.798 112.17C105.282 111.978 102.725 112.034 100.233 111.445C99.4658 111.264 98.6109 111.466 97.8353 111.305C95.1489 110.745 92.3959 110.681 89.7141 109.978C87.7148 109.454 85.6184 109.188 83.6131 108.658C80.4275 107.817 77.2819 106.819 74.1729 105.701C71.909 104.886 69.6711 103.978 67.5019 102.99C64.7359 101.731 61.9888 100.366 59.4015 98.7176C57.4656 97.4839 55.5076 96.2948 53.6636 94.919C52.0188 93.6918 50.5187 92.3044 48.9981 90.9384C48.3234 90.3322 48.6919 89.1217 49.646 88.883C52.1901 88.2463 54.5537 87.0983 57.0581 86.3415C60.1897 85.3951 63.3485 84.5828 66.5256 83.8076C68.4872 83.3289 70.4816 83.1012 72.4486 82.6964C73.6236 82.4546 74.8715 82.2736 76.0602 82.258C78.827 82.2218 81.5291 81.7268 84.2606 81.4502C84.8846 81.387 85.5211 81.346 86.1444 81.3935C88.5585 81.5776 90.945 81.0938 93.3512 81.1343C93.815 81.1421 94.0321 80.8431 94.2151 80.4872C95.7879 77.4268 98.2222 75.1831 100.988 73.2232C104.809 70.5163 109.069 68.5309 112.924 65.8868C116.898 63.1612 119.532 59.4989 120.334 54.6993C120.66 52.7502 120.249 50.8407 119.439 48.9928C118.218 46.2085 116.343 43.9885 114.019 42.0847C112.979 41.233 111.673 41.1648 110.489 40.965C109.375 40.777 108.256 40.5175 107.119 40.3818C104.225 40.0363 101.308 39.6355 98.4986 38.8859C95.5338 38.0947 92.7855 36.7781 90.6657 34.3341C88.5731 31.9213 87.4082 29.1844 86.6178 26.1177C85.8534 23.1519 85.8856 20.1751 86.3844 17.3159C87.1976 12.6547 89.1587 8.43468 93.1117 5.44594C93.5291 5.13034 94.0098 4.79483 94.4205 5.16156C94.8735 5.56609 94.7002 6.16503 94.4553 6.70991C93.6559 8.48836 92.5221 10.0968 91.9269 11.9847C90.9864 14.9677 91.0065 17.9179 92.1733 20.7992C92.931 22.6704 94.3437 24.1245 95.8875 25.3714C98.1465 27.196 100.775 28.4357 103.31 29.8299C106.574 31.6246 109.737 33.5846 112.418 36.2501C114.268 38.0906 116.024 40.0065 117.778 41.9349C119.055 43.3379 120.703 44.387 122.115 45.6857C122.993 46.4925 123.682 47.4387 124.444 48.3199C125.858 49.9541 127.01 51.8091 128.039 53.7025C131.155 59.4377 130.913 66.1373 125.789 71.0325C123.15 73.5533 120.149 75.4001 116.9 76.9809C114.578 78.1103 112.087 78.7505 109.727 79.7657C108.451 80.3145 106.989 80.4449 105.756 81.3419C107.678 81.5829 109.563 81.2846 111.425 81.5779C112.693 81.7777 113.9 82.2884 115.205 82.2997C115.492 82.3022 115.644 82.4999 115.669 82.7752C115.696 83.0698 115.643 83.3388 115.321 83.4613C114.86 83.637 114.388 83.7249 113.887 83.7088C111.341 83.6273 108.794 83.5045 106.248 83.5088C104.682 83.5115 103.112 83.6352 101.546 83.7121C100.206 83.778 99.5114 85.0078 98.7622 85.9049C97.2152 87.7572 96.6056 89.9306 97.1436 92.3622C97.2906 93.0267 97.5271 93.6268 97.9234 94.1708C98.1082 94.4246 98.2996 94.6736 98.4815 94.9294C98.7801 95.3496 99.0298 95.8691 98.6452 96.2697C98.2576 96.6735 97.6348 96.6051 97.1808 96.3151C96.448 95.8469 95.6847 95.3699 95.0953 94.7448C93.5248 93.0795 92.4652 91.1549 92.5961 88.7614C92.6666 87.4745 92.4596 86.1818 92.7495 84.896C92.8945 84.2527 92.5252 83.7879 91.8696 83.9791C90.2113 84.4627 88.4849 84.369 86.8106 84.6904C85.3061 84.9793 83.7674 85.0849 82.2514 85.2425C79.6744 85.5103 77.1916 86.083 74.684 86.6859C71.3939 87.4769 68.2116 88.5817 65.0461 89.7163C62.3492 90.6831 59.5917 91.548 56.9686 92.9432C58.1718 93.9504 59.6342 93.9148 60.9431 94.2928C63.6337 95.0698 66.4323 95.4165 69.1316 96.1078C71.7642 96.782 74.4326 97.1647 77.085 97.6653C78.3048 97.8955 79.5871 97.8404 80.7952 98.1639C83.6787 98.9359 86.6521 98.8683 89.5768 99.2272C93.2053 99.6724 96.8393 99.8517 100.476 100.114C104.942 100.436 109.407 100.565 113.862 100.302C116.882 100.125 119.931 100.266 122.926 99.6975C123.131 99.6585 123.343 99.6345 123.552 99.6375C126.298 99.6772 128.992 99.184 131.708 98.8916C134.032 98.6414 136.241 97.8195 138.554 97.6246C141.252 97.3973 143.769 96.4833 146.359 95.843C149.805 94.991 153.182 93.926 156.427 92.4702C158.719 91.4414 159.119 91.5401 159.395 93.928C159.634 95.9963 159.485 98.1099 159.497 100.204C159.5 100.583 159.387 100.98 159.763 101.256C160.068 101.345 160.237 101.144 160.373 100.948C162.102 98.464 164.483 96.8352 167.262 95.7664C169.58 94.8749 172.036 94.2913 174.483 94.4151C178.636 94.6253 182.752 95.3752 186.049 98.2018C188.455 100.265 189.993 102.759 190.152 106.185C190.334 110.089 188.895 113.292 186.761 116.261C184.995 118.719 182.774 120.808 180.333 122.631C176.385 125.58 172.142 128.023 167.687 130.124C163.403 132.143 159.077 134.06 154.659 135.763C153.952 136.035 153.35 136.59 152.518 136.542C152.116 136.519 151.634 136.716 151.472 136.143C151.325 135.62 151.594 135.305 152.049 135.054C153.848 134.064 155.628 133.04 157.425 132.048C160.566 130.314 163.734 128.63 166.851 126.856C168.635 125.84 170.339 124.685 172.082 123.597C175.005 121.771 177.807 119.772 180.356 117.455C181.929 116.025 183.262 114.379 184.389 112.54C185.882 110.106 184.908 107.413 182.912 106.128C181.287 105.082 179.529 104.255 177.538 104.47C172.938 104.965 168.912 106.713 165.907 110.346C164.022 112.625 164.197 115.621 166.172 117.796C166.266 117.9 166.364 118 166.454 118.107C166.824 118.553 166.977 119.113 166.623 119.55C166.288 119.964 165.742 119.812 165.261 119.617C162.535 118.511 160.322 116.769 158.653 114.341C158.556 114.2 158.445 114.065 158.325 113.944C158.287 113.905 158.196 113.918 158.032 113.893C157.855 114.65 157.703 115.422 157.491 116.178C156.552 119.529 155.67 122.886 154.341 126.13C152.802 129.885 150.936 133.431 148.755 136.841C147.756 138.405 146.751 139.943 145.461 141.282C145.264 141.486 145.078 141.72 145.199 142.026C145.319 142.33 145.609 142.412 145.894 142.394C148.132 142.253 150.306 142.877 152.549 142.909C154.639 142.938 156.763 143.255 158.852 143.58C160.799 143.883 162.737 144.285 164.648 144.769C167.189 145.412 169.727 146.06 172.194 146.997C174.808 147.989 177.366 149.059 179.711 150.59C183.286 152.925 186.393 155.637 187.943 159.83C189.671 164.506 189.1 168.727 186.041 172.675C183.393 176.093 179.798 178.044 175.871 179.522C175.455 179.679 174.988 179.718 174.54 179.764C174.222 179.798 173.881 179.75 173.806 179.345C173.731 178.943 173.811 178.634 174.227 178.386C177.054 176.694 179.717 174.79 181.555 171.979C183.244 169.394 183.888 166.631 182.602 163.662C180.963 159.875 178.088 157.234 174.683 155.04C173.013 153.964 171.261 153.042 169.455 152.287C165.735 150.734 161.856 149.696 157.856 149.06C156.324 148.817 154.763 148.703 153.25 148.315C152.706 148.176 152.169 148.35 151.59 148.516C151.835 149.202 152.429 149.279 152.846 149.512C156.191 151.375 158.74 154.037 160.596 157.34C161.252 158.507 161.648 159.814 161.61 161.233C161.557 163.178 161.838 165.213 160.684 166.905C159.911 168.039 159.584 169.404 158.745 170.437C157.424 172.065 155.797 173.335 153.855 174.264C150.067 176.076 146.03 176.344 141.961 176.423C139.386 176.473 136.823 176.352 134.239 176.052C132.028 175.794 129.783 175.545 127.68 174.981C125.73 174.458 123.684 173.995 121.856 173.066C120.574 172.415 119.177 172.076 117.912 171.426C116.148 170.519 114.268 169.874 112.518 168.929C111.488 168.373 110.253 168.188 109.245 167.603C107.258 166.449 105.03 165.952 102.906 165.241C101.066 164.625 99.0976 164.24 97.109 164.074C94.788 163.881 92.4763 163.383 90.1518 163.432C88.0796 163.476 85.9916 163.684 83.9428 164.107C83.6044 164.177 83.2509 164.174 82.8079 164.205ZM145.654 154.472C144.633 154.256 143.609 153.98 142.557 154.126C138.717 154.659 135.1 155.897 131.695 157.728C128.942 159.208 126.237 160.775 123.504 162.29C122.439 162.881 122.357 163.377 123.439 163.977C124.432 164.526 125.183 165.35 126.113 165.97C129.409 168.166 132.664 170.381 136.457 171.709C140.395 173.087 144.42 173.449 148.453 172.665C151.968 171.982 155.332 170.78 158.073 168.211C159.048 167.297 159.218 166.352 158.985 165.267C158.151 161.4 155.386 159.062 152.286 157.004C150.31 155.692 148.087 155.053 145.654 154.472Z" fill="black"/>
<path d="M63.3323 146.635C65.923 145.524 68.5956 145.225 71.2787 144.799C75.7118 144.093 80.1355 144.639 84.5539 144.41C86.1789 144.326 87.7295 144.788 89.3273 144.882C89.8892 144.916 90.387 145.175 90.5036 145.872C90.6405 146.691 89.9512 146.621 89.5369 146.846C89.1891 147.035 88.8072 147.06 88.415 147.032C84.3426 146.742 80.3609 147.403 76.3588 148.045C74.1407 148.401 72.0938 149.161 70.1535 150.143C68.715 150.871 67.2928 151.687 65.9009 152.532C64.5568 153.348 63.1048 153.941 61.4787 153.866C60.0604 153.801 59.4719 153.179 59.4671 151.788C59.4574 149.01 60.5048 147.597 63.3323 146.635Z" fill="black"/>
<path d="M51.8024 189.221C51.7403 185.377 53.0829 182.206 55.6824 179.545C55.7557 179.47 55.8316 179.397 55.9058 179.323C56.2764 178.953 56.7732 178.643 57.207 178.969C57.6669 179.314 57.5102 179.941 57.3206 180.422C57.1708 180.803 56.7871 181.097 56.6611 181.48C55.7153 184.356 55.6868 187.084 57.76 189.601C58.8634 190.94 59.9973 192.252 61.1147 193.578C62.3662 195.064 62.6635 198.368 61.7036 200.051C61.0045 201.277 59.267 201.71 57.5945 201.146C53.8742 199.89 52.0906 196.551 51.8183 192.995C51.7252 191.779 51.8028 190.549 51.8024 189.221Z" fill="black"/>
<path d="M49.2887 146.457C45.7828 147.48 42.264 148.109 38.8901 149.332C36.676 150.135 34.4035 150.787 32.2681 151.794C28.4975 153.57 25.2809 156.071 22.6761 159.338C22.2618 159.857 21.7977 160.633 21.1073 160.095C20.4779 159.606 20.8708 158.828 21.2755 158.218C23.7108 154.545 26.8766 151.656 30.8168 149.711C33.6833 148.296 36.804 147.517 39.8326 146.507C42.8876 145.488 46.0572 145.069 49.1903 144.509C51.3268 144.128 53.5259 143.8 55.7366 144.027C56.1849 144.073 56.7057 143.97 56.7012 144.665C56.697 145.307 56.1886 145.149 55.8018 145.256C53.693 145.844 51.4707 145.804 49.2887 146.457Z" fill="black"/>
<path d="M55.0818 125.571C55.2932 126.299 55.7429 126.802 56.0747 127.372C56.375 127.888 56.6399 128.563 56.0208 128.961C55.4213 129.347 54.9451 128.933 54.5663 128.375C52.4424 125.248 50.8528 121.885 49.6963 118.278C48.0242 113.063 47.6135 107.713 47.9144 102.315C48.0465 99.9446 48.3877 97.5435 49.0655 95.2299C49.1338 94.9965 49.2347 94.7729 49.3149 94.5427C49.4387 94.1874 49.6978 94.0751 50.0524 94.1085C50.4728 94.1482 50.5159 94.4501 50.5538 94.7798C50.7174 96.1999 50.2371 97.5355 50.0372 98.9092C49.5273 102.412 49.4602 105.894 50.3903 109.365C50.7192 110.592 50.7674 111.897 50.9136 113.171C51.2673 116.249 52.394 119.098 53.5217 121.943C53.9968 123.142 54.5437 124.312 55.0818 125.571Z" fill="black"/>
<path d="M41.7451 180.856C41.0568 180.862 40.4615 180.884 39.869 180.854C38.743 180.796 37.7724 179.802 37.7905 178.759C37.8068 177.816 38.7312 177.005 39.8772 176.947C40.2605 176.927 40.646 176.953 41.0302 176.944C42.6912 176.906 44.2942 176.667 45.6707 175.621C46.0791 175.311 46.59 175.059 46.9917 175.477C47.3446 175.844 47.2432 176.396 47.0152 176.854C46.8919 177.102 46.7505 177.363 46.5517 177.548C45.1338 178.864 43.8419 180.366 41.7451 180.856Z" fill="black"/>
</svg>
